<svg width="184" height="78" viewBox="0 0 184 78" fill="none" xmlns="http://www.w3.org/2000/svg">
<path d="M0 77.2842V2.69705C17.8119 1.74485 50.5511 6.45779 50.5511 39.0504C50.5511 71.6431 16.8504 80.836 0 77.2842Z" fill="#D9D9D9"/>
<path fill-rule="evenodd" clip-rule="evenodd" d="M59.6667 2.58772H103.588V78H59.6667L59.6666 51.4814L103.588 51.4814V50.4814L59.6666 50.4814L59.6667 29.1063L103.588 29.1063V28.1063L59.6667 28.1063V2.58772Z" fill="#D9D9D9"/>
<path fill-rule="evenodd" clip-rule="evenodd" d="M128.449 2.58772H111.875V78H141.52L127.467 2.77134L128.449 2.58772ZM142.537 78H155.797V2.58772H128.45L142.538 78L142.537 78Z" fill="#D9D9D9"/>
<rect x="164.083" y="31.5924" width="19.889" height="46.4076" fill="#D9D9D9"/>
<path d="M171.981 0.198553C171.536 -0.109555 170.973 -0.0551786 170.584 0.334522C170.187 0.715142 170.06 1.34956 170.266 1.8933C171.655 5.61816 171.29 7.39443 170.949 8.11945C170.584 8.88075 169.996 9.08011 169.758 9.12547C169.115 9.26136 168.631 7.81134 168.623 7.80227C168.472 7.29475 168.067 6.94129 167.599 6.89599C167.122 6.85976 166.686 7.12256 166.456 7.59384C164.352 11.9711 163.796 16.0766 164.813 19.8105C166.297 25.2844 170.639 27.8401 170.822 27.9489C170.988 28.0486 171.179 28.0939 171.354 28.0939C171.647 28.0939 171.925 27.9761 172.147 27.7495C172.513 27.3779 172.647 26.7889 172.481 26.2632C172.116 25.1304 171.473 21.8496 172.806 20.2455C173.624 19.2668 174.195 18.3695 174.584 17.5992C177.776 23.3269 176.069 25.1213 176.037 25.1666C176.029 25.1666 176.029 25.1757 176.021 25.1757C175.481 25.6017 175.354 26.4445 175.72 27.0608C176.093 27.677 176.823 27.8402 177.371 27.4233C177.371 27.4142 177.379 27.4142 177.387 27.4052C181.252 24.3147 183.158 20.7349 183.046 16.7473C182.808 7.85664 172.425 0.506716 171.981 0.198553Z" fill="url(#paint0_linear_181_374)"/>
<defs>
<linearGradient id="paint0_linear_181_374" x1="164" y1="1.3548e-07" x2="183" y2="28" gradientUnits="userSpaceOnUse">
<stop stop-color="#FF1679"/>
<stop offset="1" stop-color="#FF770B"/>
</linearGradient>
</defs>
</svg>
