<svg width="26" height="39" viewBox="0 0 26 39" fill="none" xmlns="http://www.w3.org/2000/svg">
<path d="M13.7609 0C14.1353 0.436923 14.556 1.28246 14.7906 2.26954C14.8156 2.368 14.8256 2.46646 14.8443 2.56492H14.8231C13.7184 4.07754 11.8974 4.96738 9.96151 4.94277C9.23633 6.80492 7.34413 8.208 4.98387 8.63262C3.2115 8.76431 1.74242 9.90523 1.33427 11.4634C1.23446 11.8448 1.20237 12.2404 1.23942 12.6326C1.2519 12.4345 1.27686 12.2437 1.32179 12.0886C1.7936 10.5046 3.33506 9.38215 5.15612 9.30585C7.59002 8.94769 9.57708 7.56923 10.3834 5.68246C12.3679 5.77108 13.6835 5.03877 14.8667 3.52369C14.3637 6.08246 11.1023 6.58708 11.1023 6.58708C11.1023 6.58708 9.8317 8.80738 7.94824 9.51262C6.45794 10.0702 4.71302 10.4111 3.76942 10.9206C2.33404 11.6985 1.87223 12.7471 1.80982 14.2265C2.03449 14.5662 2.34153 14.8578 2.68228 15.12C2.74739 14.9867 2.85906 14.8809 2.99681 14.8222C4.09644 14.3052 5.11118 13.7095 6.02483 13.0498C6.13694 12.9669 6.27411 12.9235 6.41426 12.9268C6.54519 12.9299 6.67179 12.9736 6.77614 13.0517C6.88049 13.1297 6.9573 13.2382 6.99568 13.3616C7.03406 13.4851 7.03207 13.6174 6.99 13.7397C6.94792 13.862 6.86789 13.9681 6.76124 14.0431C5.87131 14.6855 4.88901 15.2554 3.84805 15.7662C5.22352 16.2412 6.79744 16.0123 7.94075 15.1138C7.99067 15.0683 8.01189 15.0462 8.09677 14.9637C10.3185 15.9052 13.0557 15.7329 15.0365 14.5748L15.1051 14.5366C15.4471 14.3311 15.225 14.4554 15.225 14.4554L15.1538 14.5563C13.9256 16.1255 13.8433 17.3994 9.33993 18.5182C4.83534 19.6369 3.13411 24.448 4.04277 28.3471H5.35208C4.44467 24.4492 6.1459 20.2658 10.6492 19.1483C15.1538 18.0283 15.2312 16.128 16.4606 14.5588L16.5243 14.4677L17.6576 13.9385C16.4731 22.7754 6.41176 16.6215 6.41176 28.3446L6.41925 28.9354H17.4729V28.3163H20.1689C20.3561 27.9138 20.5246 27.5052 20.6881 27.0954L25.003 27.0831C26.7217 18.4037 23.62 7.96431 18.057 3.12369L17.9072 3.01538C17.066 1.57785 15.6231 0.449231 13.7596 0.00615384L13.7609 0ZM14.4861 0.48C16.6241 2.12677 17.1496 4.37538 15.1413 5.44738L14.8056 5.53354C16.3171 2.60554 14.727 1.00062 14.4861 0.48ZM12.9084 8.00985C12.9234 8.00931 12.9384 8.00931 12.9533 8.00985H14.2015C14.367 8.00985 14.5257 8.07468 14.6428 8.19009C14.7598 8.30549 14.8256 8.46202 14.8256 8.62523C14.8256 8.78844 14.7598 8.94497 14.6428 9.06037C14.5257 9.17578 14.367 9.24061 14.2015 9.24061H12.9533C12.7878 9.24649 12.6267 9.18729 12.5055 9.07604C12.3842 8.96479 12.3127 8.81059 12.3068 8.64738C12.3008 8.48417 12.3609 8.32531 12.4737 8.20575C12.5865 8.08619 12.7429 8.01572 12.9084 8.00985ZM5.1374 30.1612C3.76443 30.1612 2.64109 31.2689 2.64109 32.6228C2.64109 33.0732 2.77589 33.4892 2.99182 33.8535H2.65232C1.24191 33.8535 0 34.8369 0 36.1662V36.7963L0.00249612 37.1323L0 37.5335V38.7692H1.24815V37.5335L1.25065 37.1323L1.24815 36.7963V36.1662C1.24815 34.8369 2.49131 33.8535 3.90048 33.8535H4.24122C4.0147 33.4816 3.89357 33.0566 3.89049 32.6228C3.89049 31.2689 5.01383 30.1612 6.3868 30.1612H5.1374ZM7.6337 30.1612C6.26073 30.1612 5.1374 31.2689 5.1374 32.6228C5.1374 33.0732 5.2722 33.4892 5.48813 33.8535H5.14863C3.73822 33.8535 2.49631 34.8369 2.49631 36.1662V36.7963L2.4988 37.1323L2.49631 37.5335V38.7692H23.7149V36.1686C23.7149 34.8394 22.4692 33.856 21.0601 33.856H20.8042C21.0302 33.4839 21.1509 33.0589 21.1537 32.6252C21.1537 31.2726 20.0304 30.1637 18.6574 30.1637H7.63495L7.6337 30.1612Z" fill="black"/>
</svg>
