<svg width="64" height="95" viewBox="0 0 64 95" fill="none" xmlns="http://www.w3.org/2000/svg">
<path d="M0 94.0983V0.137722C22.4384 -1.0618 63.6813 4.87528 63.6813 45.9336C63.6813 86.9919 21.2271 98.5726 0 94.0983Z" fill="#D9D9D9"/>
<path d="M24.8613 28.2686C24.1731 27.8518 23.3006 27.9254 22.6984 28.4525C22.084 28.9673 21.8873 29.8254 22.2068 30.5609C24.3575 35.5992 23.7922 38.0018 23.2637 38.9824C22.6985 40.0122 21.789 40.2818 21.4203 40.3432C20.4248 40.527 19.6752 38.5657 19.6629 38.5534C19.4294 37.8669 18.8026 37.3888 18.0776 37.3276C17.3402 37.2785 16.6643 37.634 16.3079 38.2715C13.0512 44.1922 12.1909 49.7453 13.764 54.7958C16.0621 62.1999 22.7844 65.6567 23.0671 65.8038C23.3251 65.9387 23.6202 66 23.8905 66C24.3452 66 24.7754 65.8406 25.1194 65.5342C25.6848 65.0315 25.8937 64.2348 25.6356 63.5238C25.0703 61.9915 24.0749 57.5539 26.1395 55.3842C27.4053 54.0603 28.2901 52.8467 28.8923 51.8048C33.8327 59.5521 31.1904 61.9792 31.1413 62.0405C31.129 62.0405 31.129 62.0528 31.1167 62.0528C30.281 62.629 30.0844 63.769 30.6497 64.6026C31.2274 65.4361 32.358 65.6568 33.2059 65.0929C33.2059 65.0806 33.2183 65.0806 33.2305 65.0684C39.2155 60.8882 42.165 56.0462 41.9929 50.6525C41.6242 38.6269 25.5495 28.6854 24.8613 28.2686Z" fill="#EF5400"/>
</svg>
