<svg width="404" height="172" viewBox="0 0 404 172" fill="none" xmlns="http://www.w3.org/2000/svg">
<path d="M1 169.293V5.90647C40.0178 3.82064 111.734 14.1445 111.734 85.5403C111.734 156.936 37.9115 177.073 1 169.293Z" stroke="black" stroke-opacity="0.65"/>
<mask id="path-2-inside-1_202_642" fill="white">
<path fill-rule="evenodd" clip-rule="evenodd" d="M131.702 5.66699H227.914L227.914 62.7584L131.702 62.7583L131.702 63.7583L227.914 63.7584V111.77L131.702 111.77L131.702 112.77L227.914 112.77L227.914 170.861H131.702V5.66699Z"/>
</mask>
<path d="M227.914 5.66699L228.914 5.66699V4.66699H227.914V5.66699ZM131.702 5.66699V4.66699H130.702V5.66699H131.702ZM227.914 62.7584V63.7584H228.914V62.7584H227.914ZM131.702 62.7583L131.702 61.7583H130.702L130.702 62.7583H131.702ZM131.702 63.7583H130.702L130.702 64.7583H131.702L131.702 63.7583ZM227.914 63.7584H228.914V62.7584H227.914V63.7584ZM227.914 111.77V112.77H228.914V111.77H227.914ZM131.702 111.77L131.702 110.77H130.702L130.702 111.77H131.702ZM131.702 112.77H130.702L130.702 113.77H131.702L131.702 112.77ZM227.914 112.77H228.914V111.77H227.914V112.77ZM227.914 170.861V171.861H228.914V170.861H227.914ZM131.702 170.861H130.702V171.861H131.702V170.861ZM227.914 4.66699H131.702V6.66699H227.914V4.66699ZM228.914 62.7584L228.914 5.66699L226.914 5.66699L226.914 62.7584H228.914ZM131.702 63.7583L227.914 63.7584V61.7584L131.702 61.7583L131.702 63.7583ZM132.702 63.7583L132.702 62.7583H130.702L130.702 63.7583H132.702ZM227.914 62.7584L131.702 62.7583L131.702 64.7583L227.914 64.7584V62.7584ZM228.914 111.77V63.7584H226.914V111.77H228.914ZM131.702 112.77L227.914 112.77V110.77L131.702 110.77L131.702 112.77ZM132.702 112.77L132.702 111.77H130.702L130.702 112.77H132.702ZM227.914 111.77L131.702 111.77L131.702 113.77L227.914 113.77V111.77ZM228.914 170.861L228.914 112.77H226.914L226.914 170.861H228.914ZM131.702 171.861H227.914V169.861H131.702V171.861ZM130.702 5.66699V170.861H132.702V5.66699H130.702Z" fill="black" fill-opacity="0.65" mask="url(#path-2-inside-1_202_642)"/>
<mask id="path-4-inside-2_202_642" fill="white">
<path fill-rule="evenodd" clip-rule="evenodd" d="M342.28 5.66699H246.068V170.861H312.218L281.392 5.8511L282.375 5.66746L313.235 170.861H342.28V5.66699Z"/>
</mask>
<path d="M246.068 5.66699V4.66699H245.068V5.66699H246.068ZM342.28 5.66699H343.28V4.66699H342.28V5.66699ZM246.068 170.861H245.068V171.861H246.068V170.861ZM312.218 170.861V171.861H313.422L313.201 170.677L312.218 170.861ZM281.392 5.8511L281.208 4.86811L280.225 5.05174L280.409 6.03474L281.392 5.8511ZM282.375 5.66746L283.358 5.48383L283.174 4.50083L282.191 4.68447L282.375 5.66746ZM313.235 170.861L312.252 171.045L312.404 171.861H313.235V170.861ZM342.28 170.861V171.861H343.28V170.861H342.28ZM246.068 6.66699H342.28V4.66699H246.068V6.66699ZM247.068 170.861V5.66699H245.068V170.861H247.068ZM312.218 169.861H246.068V171.861H312.218V169.861ZM313.201 170.677L282.375 5.66746L280.409 6.03474L311.235 171.045L313.201 170.677ZM281.575 6.83409L282.558 6.65046L282.191 4.68447L281.208 4.86811L281.575 6.83409ZM281.392 5.8511L312.252 171.045L314.218 170.677L283.358 5.48383L281.392 5.8511ZM342.28 169.861H313.235V171.861H342.28V169.861ZM341.28 5.66699V170.861H343.28V5.66699H341.28Z" fill="black" fill-opacity="0.65" mask="url(#path-4-inside-2_202_642)"/>
<rect x="360.933" y="69.7031" width="42.5677" height="100.658" stroke="black" stroke-opacity="0.65"/>
<path d="M368.133 15.106C369.159 15.2052 370.046 15.9795 370.377 17.0912C370.378 17.0927 370.385 17.112 370.398 17.1461C370.555 17.5679 371.56 20.2651 372.863 19.9898C373.385 19.8904 374.672 19.4537 375.471 17.786C376.219 16.1979 377.019 12.3068 373.976 4.14736C373.524 2.95627 373.802 1.56655 374.672 0.732787C375.524 -0.120871 376.758 -0.239986 377.732 0.434939C378.706 1.10998 401.45 17.2103 401.972 36.6857C402.216 45.4208 398.042 53.2625 389.574 60.0322C389.567 60.0399 389.561 60.0445 389.555 60.0486C389.546 60.055 389.539 60.0597 389.539 60.072M368.133 15.106C367.09 15.0266 366.134 15.6023 365.629 16.6347M368.133 15.106L368.096 15.6045C368.094 15.6044 368.092 15.6043 368.09 15.6042M368.133 15.106L368.085 15.6037C368.087 15.6038 368.089 15.604 368.09 15.6042M365.629 16.6347C361.021 26.2233 359.804 35.2166 362.03 43.3958C365.263 55.318 374.685 60.9208 375.186 61.2187L375.193 61.2233C375.558 61.4418 375.976 61.541 376.358 61.541C377.002 61.541 377.61 61.2829 378.097 60.7866C378.897 59.9726 379.193 58.6823 378.828 57.5308M365.629 16.6347L366.08 16.8512C366.08 16.8517 366.08 16.8522 366.079 16.8527M365.629 16.6347L366.079 16.8541C366.079 16.8536 366.079 16.8532 366.079 16.8527M378.828 57.5308C378.028 55.0492 376.619 47.8626 379.541 44.3487C381.146 42.4263 382.319 40.6473 383.158 39.0837C383.106 38.988 383.053 38.8919 382.999 38.7952L383.436 38.5518L383.882 38.7772C383.831 38.8772 383.78 38.9781 383.726 39.08C390.143 50.8831 386.874 54.8193 386.631 55.1126C386.624 55.1207 386.62 55.126 386.618 55.1286C386.609 55.1286 386.605 55.1336 386.6 55.1386C386.596 55.1435 386.592 55.1485 386.583 55.1485M378.828 57.5308L378.352 57.6842C378.351 57.6838 378.351 57.6834 378.351 57.6831M378.828 57.5308L378.351 57.682C378.351 57.6823 378.351 57.6827 378.351 57.6831M386.583 55.1485C385.401 56.0816 385.122 57.9279 385.922 59.2779M386.583 55.1485L386.618 55.1926L386.893 55.541C386.889 55.544 386.885 55.547 386.881 55.55C386.884 55.5481 386.887 55.5461 386.89 55.5442C386.922 55.522 386.946 55.5003 386.959 55.4871C386.962 55.4835 386.965 55.4801 386.968 55.4774C386.97 55.4751 386.972 55.4733 386.973 55.4719L386.97 55.4756C386.966 55.4799 386.96 55.4866 386.952 55.4944C386.937 55.5099 386.911 55.5338 386.876 55.5579C386.869 55.5624 386.862 55.567 386.855 55.5714C386.832 55.5901 386.81 55.6091 386.789 55.6286M386.583 55.1485V55.6485C386.629 55.6485 386.677 55.6424 386.725 55.6286H386.789M385.922 59.2779C386.74 60.6278 388.339 60.9852 389.539 60.072M385.922 59.2779L386.35 59.0189C386.35 59.0195 386.351 59.0201 386.351 59.0208M385.922 59.2779L386.352 59.023C386.352 59.0222 386.351 59.0215 386.351 59.0208M389.539 60.072H389.039C389.039 59.9877 389.059 59.891 389.116 59.799C389.136 59.7662 389.158 59.7389 389.178 59.717M389.539 60.072L389.381 59.8647L389.236 59.6741C389.223 59.6839 389.211 59.6935 389.198 59.7029M389.178 59.717C388.245 60.3789 387.016 60.1173 386.351 59.0208M389.178 59.717C389.195 59.6988 389.211 59.6843 389.223 59.6735M389.178 59.717C389.185 59.7123 389.191 59.7076 389.198 59.7029M389.198 59.7029C389.218 59.6801 389.249 59.6539 389.262 59.6427C389.266 59.6396 389.269 59.6376 389.269 59.6373C389.27 59.6368 389.268 59.6384 389.262 59.6426C389.259 59.6454 389.254 59.6493 389.247 59.6546C389.241 59.6586 389.233 59.6649 389.223 59.6735M389.198 59.7029C389.197 59.7032 389.197 59.7036 389.197 59.704L389.223 59.6735M389.223 59.6735L389.226 59.6699L389.262 59.6417C397.641 52.9433 401.71 45.2399 401.472 36.6996L401.472 36.6991C401.216 27.1421 395.498 18.3608 389.649 11.8442C383.813 5.34065 377.918 1.17212 377.447 0.845883C376.677 0.312046 375.711 0.399471 375.026 1.086L375.018 1.09375L375.018 1.09367C374.305 1.77674 374.056 2.94983 374.444 3.96992L374.445 3.97264L374.445 3.97264C377.512 12.198 376.751 16.2411 375.924 17.999L375.922 18.0023C375.038 19.8467 373.595 20.3583 372.961 20.48C372.399 20.5968 371.915 20.3529 371.557 20.0443C371.198 19.7355 370.9 19.3113 370.666 18.9117C370.43 18.5063 370.242 18.095 370.113 17.7875C370.048 17.6329 369.998 17.5028 369.963 17.4109C369.955 17.3896 369.948 17.3701 369.941 17.3531M369.941 17.3531L370 17.4205C369.967 17.3823 369.947 17.3475 369.943 17.3407C369.936 17.3278 369.931 17.3172 369.928 17.312C369.926 17.3068 369.923 17.3023 369.922 17.2986C369.92 17.2946 369.919 17.2917 369.918 17.2905C369.916 17.2848 369.914 17.2813 369.915 17.2833L369.923 17.3052L369.929 17.3202C369.933 17.3298 369.937 17.3408 369.941 17.3531ZM369.941 17.3531L369.928 17.3383L369.897 17.2337C369.618 16.2927 368.886 15.6834 368.09 15.6042M368.09 15.6042C367.274 15.5442 366.502 15.9879 366.079 16.8527M366.079 16.8527C361.51 26.3615 360.326 35.2294 362.512 43.2645L362.513 43.2649C365.693 54.9923 374.969 60.508 375.442 60.7894L375.449 60.7937L375.45 60.7943C375.731 60.9621 376.058 61.041 376.358 61.041C376.861 61.041 377.343 60.842 377.74 60.4365L377.741 60.4362C378.404 59.7616 378.663 58.6673 378.351 57.6831M378.351 57.6831C377.939 56.4042 377.378 53.9418 377.289 51.3439C377.201 48.7672 377.573 45.9328 379.156 44.0291L379.157 44.0282C380.925 41.9114 382.156 39.9776 382.989 38.3264L383.414 37.4855L383.872 38.3085C387.394 44.6295 388.247 48.8387 388.174 51.5216C388.138 52.8651 387.869 53.821 387.592 54.4601C387.453 54.779 387.314 55.0164 387.203 55.1816C387.147 55.2643 387.099 55.328 387.063 55.3741C387.044 55.397 387.03 55.4149 387.019 55.4271C387.019 55.428 387.018 55.4289 387.017 55.4297M387.017 55.4297L387.027 55.4155C387.02 55.4264 387.011 55.4373 387.009 55.4397C387.008 55.4412 387.01 55.4388 387.017 55.4297ZM387.017 55.4297L386.878 55.6286H386.789M386.789 55.6286C385.909 56.4181 385.693 57.9075 386.351 59.0208" stroke="black" stroke-opacity="0.65"/>
</svg>
