<svg width="100" height="100" viewBox="0 0 100 100" fill="none" xmlns="http://www.w3.org/2000/svg">
<rect width="100" height="100" rx="10" fill="#D9D9D9"/>
<path d="M49.5 14C29.3735 14 13 30.1492 13 50C13 69.8508 29.3735 86 49.5 86C69.6265 86 86 69.8508 86 50C86 30.1492 69.6265 14 49.5 14ZM49.5 79.0323C33.2691 79.0323 20.0645 66.0086 20.0645 50C20.0645 33.9914 33.2691 20.9677 49.5 20.9677C65.7309 20.9677 78.9355 33.9914 78.9355 50C78.9355 66.0086 65.7309 79.0323 49.5 79.0323Z" fill="#393939"/>
<path d="M60.0632 57.5145C57.2269 60.395 53.4736 61.9826 49.5 61.9826C45.5264 61.9826 41.7731 60.395 38.9368 57.5145C37.5883 56.1439 35.3992 56.1439 34.0552 57.5145C32.7067 58.8851 32.7067 61.1077 34.0552 62.476C38.1973 66.6837 43.6812 69 49.5 69C55.3188 69 60.8027 66.6837 64.9448 62.476C66.2933 61.1077 66.2933 58.8851 64.9448 57.5145C63.6008 56.1439 61.4117 56.1439 60.0632 57.5145ZM40.8897 39.0259C40.8897 36.2502 38.6759 34 35.9449 34C33.2139 34 31 36.2502 31 39.0259C31 41.8016 33.2139 44.0518 35.9449 44.0518C38.6759 44.0518 40.8897 41.8016 40.8897 39.0259ZM63.0551 34C60.3241 34 58.1103 36.2502 58.1103 39.0259C58.1103 41.8016 60.3241 44.0518 63.0551 44.0518C65.7861 44.0518 68 41.8016 68 39.0259C68 36.2502 65.7861 34 63.0551 34Z" fill="#393939"/>
</svg>
