<svg width="73" height="69" viewBox="0 0 73 69" fill="none" xmlns="http://www.w3.org/2000/svg">
<path d="M36.5 0C16.3735 0 0 15.4763 0 34.5C0 53.5237 16.3735 69 36.5 69C56.6265 69 73 53.5237 73 34.5C73 15.4763 56.6265 0 36.5 0ZM36.5 62.3226C20.2691 62.3226 7.06452 49.8415 7.06452 34.5C7.06452 19.1585 20.2691 6.67742 36.5 6.67742C52.7309 6.67742 65.9355 19.1585 65.9355 34.5C65.9355 49.8415 52.7309 62.3226 36.5 62.3226Z" fill="white"/>
<path d="M47.0632 42.1708C44.2269 44.8867 40.4736 46.3836 36.5 46.3836C32.5264 46.3836 28.7731 44.8867 25.9368 42.1708C24.5883 40.8786 22.3992 40.8786 21.0552 42.1708C19.7067 43.4631 19.7067 45.5587 21.0552 46.8488C25.1973 50.8161 30.6812 53 36.5 53C42.3188 53 47.8027 50.8161 51.9448 46.8488C53.2933 45.5587 53.2933 43.4631 51.9448 42.1708C50.6008 40.8786 48.4117 40.8786 47.0632 42.1708ZM27.8897 24.7387C27.8897 22.1216 25.6759 20 22.9449 20C20.2139 20 18 22.1216 18 24.7387C18 27.3558 20.2139 29.4774 22.9449 29.4774C25.6759 29.4774 27.8897 27.3558 27.8897 24.7387ZM50.0551 20C47.3241 20 45.1103 22.1216 45.1103 24.7387C45.1103 27.3558 47.3241 29.4774 50.0551 29.4774C52.7861 29.4774 55 27.3558 55 24.7387C55 22.1216 52.7861 20 50.0551 20Z" fill="white"/>
</svg>
