<svg width="97" height="96" viewBox="0 0 97 96" fill="none" xmlns="http://www.w3.org/2000/svg">
<path d="M17.4893 79.1565H14.4966C13.9276 79.1565 13.4663 79.6178 13.4663 80.1868V94.9669C13.4663 95.5359 13.9276 95.9972 14.4966 95.9972H17.4893C18.0583 95.9972 18.5196 95.5359 18.5196 94.9669V80.1868C18.5196 79.6178 18.0583 79.1565 17.4893 79.1565Z" fill="#FF832F"/>
<path d="M12.5535 21.3052C13.0687 21.544 13.5443 21.8606 13.9634 22.2438C14.8107 23.0365 15.4045 24.0622 15.6699 25.1917C15.6958 24.1837 16.0731 23.2164 16.7364 22.4571C17.2942 21.8355 18.0216 21.3906 18.829 21.1772C18.1291 21.0784 17.4673 20.7982 16.9092 20.3645C16.1137 19.7239 15.5821 18.8126 15.4161 17.8048C15.4021 18.5218 15.1797 19.2193 14.7761 19.8121C14.2431 20.5652 13.4522 21.0965 12.5535 21.3052ZM17.7731 24.2702C17.9465 24.352 18.1068 24.4591 18.2488 24.588C18.5346 24.8544 18.7351 25.1996 18.8247 25.5799C18.8302 25.2689 18.9375 24.9682 19.1301 24.724C19.3227 24.4798 19.5901 24.3054 19.8913 24.2275C19.658 24.1931 19.4376 24.0991 19.2513 23.9545C18.9857 23.7405 18.8068 23.4373 18.7479 23.1013C18.7446 23.3427 18.6704 23.5778 18.5346 23.7774C18.3511 24.0309 18.0795 24.2067 17.7731 24.2702ZM12.2207 18.8906C12.3391 18.9446 12.4485 19.0165 12.5449 19.1039C12.7405 19.287 12.8777 19.5237 12.9396 19.7843C12.9433 19.5714 13.017 19.3657 13.1492 19.1988C13.2814 19.0319 13.4648 18.9131 13.6712 18.8607C13.5101 18.8381 13.3577 18.7734 13.2297 18.673C13.0456 18.5253 12.9226 18.3149 12.8841 18.0821C12.8813 18.2714 12.8148 18.4542 12.6951 18.601C12.5755 18.7477 12.4098 18.8497 12.225 18.8906H12.2207ZM51.8256 2.5533C52.1997 2.72738 52.5449 2.95757 52.8495 3.23588C53.4644 3.80907 53.8963 4.55115 54.0909 5.36896C54.1035 4.69867 54.3348 4.05085 54.7495 3.52409C55.1642 2.99733 55.7397 2.62049 56.3883 2.45091C55.8786 2.38189 55.3965 2.17872 54.9911 1.86218C54.4128 1.39585 54.0263 0.732999 53.9054 0C53.896 0.524262 53.7336 1.03436 53.4382 1.46756C53.0521 2.01506 52.4781 2.40149 51.8256 2.5533ZM55.6182 4.70344C55.7448 4.76162 55.8614 4.83936 55.9638 4.93382C56.1749 5.12605 56.3235 5.3772 56.3904 5.6548C56.3977 5.40789 56.4904 5.17115 56.6528 4.98501C56.789 4.83258 56.967 4.72354 57.1647 4.67145C56.9927 4.64856 56.8299 4.58006 56.6933 4.47307C56.4986 4.31608 56.3688 4.09277 56.3285 3.84594C56.3244 4.02129 56.2696 4.19168 56.1707 4.33655C56.0382 4.52288 55.8414 4.65357 55.6182 4.70344ZM51.5824 0.791373C51.7139 0.85265 51.8294 0.943422 51.9201 1.05663C52.0107 1.16984 52.074 1.30243 52.105 1.4441C52.1103 1.27519 52.1736 1.11325 52.2842 0.985483C52.3776 0.881854 52.4992 0.807722 52.6341 0.772175C52.5167 0.756731 52.4055 0.710351 52.312 0.637791C52.1798 0.530555 52.0911 0.378939 52.0624 0.211175C52.0592 0.331303 52.0222 0.448102 51.9557 0.548201C51.8644 0.671353 51.732 0.757644 51.5824 0.791373ZM31.8024 75.3852L19.9531 75.4748C20.6713 70.745 21.3894 66.0174 22.1075 61.2919H33.9568C33.2429 65.989 32.5248 70.6867 31.8024 75.3852Z" fill="#FFB833"/>
<path d="M53.0709 74.6963H12.5787C11.8624 74.6963 11.2817 75.2769 11.2817 75.9932V76.1532C11.2817 76.8695 11.8624 77.4501 12.5787 77.4501H53.0709C53.7872 77.4501 54.3678 76.8695 54.3678 76.1532V75.9932C54.3678 75.2769 53.7872 74.6963 53.0709 74.6963Z" fill="#FF832F"/>
<path d="M57.2174 66.8998H8.00298C7.41362 66.9005 6.84489 66.6829 6.40649 66.289C5.96809 65.8951 5.69107 65.3528 5.62887 64.7668L2.45697 33.9032C2.42264 33.5709 2.45846 33.235 2.56213 32.9173C2.6658 32.5997 2.835 32.3074 3.05879 32.0592C3.28257 31.8111 3.55596 31.6128 3.86126 31.477C4.16656 31.3412 4.49696 31.271 4.83109 31.271H51.8805C52.4419 31.2723 52.9849 31.4715 53.4141 31.8335C53.8432 32.1955 54.131 32.6973 54.2268 33.2505L59.5595 64.1076C59.6188 64.4496 59.6028 64.8003 59.5125 65.1354C59.4222 65.4705 59.2599 65.7818 59.0369 66.0477C58.8139 66.3135 58.5356 66.5275 58.2213 66.6747C57.907 66.8219 57.5644 66.8987 57.2174 66.8998Z" fill="#FF832F"/>
<path d="M8.00316 64.7454C7.94454 64.7461 7.88786 64.7244 7.84466 64.6848C7.80146 64.6451 7.77499 64.5905 7.77066 64.5321L4.6009 33.677C4.59616 33.6448 4.59888 33.6118 4.60887 33.5808C4.61885 33.5497 4.63583 33.5213 4.65849 33.4979C4.67945 33.4726 4.70594 33.4526 4.73591 33.4393C4.76587 33.426 4.79851 33.4197 4.83127 33.4211H51.8806C51.9359 33.4204 51.9896 33.4396 52.0319 33.4753C52.0742 33.5109 52.1023 33.5606 52.111 33.6152L57.4437 64.4702C57.4493 64.5036 57.4475 64.5378 57.4385 64.5705C57.4295 64.6031 57.4135 64.6334 57.3915 64.6592C57.3696 64.685 57.3423 64.7057 57.3115 64.7199C57.2807 64.734 57.2472 64.7413 57.2133 64.7411L8.00316 64.7454Z" fill="#FFF3E3"/>
<path d="M74.3699 77.4478H0.76151C0.340939 77.4478 0 77.7887 0 78.2093V80.5834C0 81.0039 0.340939 81.3449 0.76151 81.3449H74.3699C74.7904 81.3449 75.1314 81.0039 75.1314 80.5834V78.2093C75.1314 77.7887 74.7904 77.4478 74.3699 77.4478Z" fill="#FFB833"/>
<path d="M46.1429 9.94434H29.5817C26.0357 9.94434 23.1611 12.8189 23.1611 16.3649V17.1456C23.1611 20.6916 26.0357 23.5662 29.5817 23.5662H46.1429C49.6889 23.5662 52.5635 20.6916 52.5635 17.1456V16.3649C52.5635 12.8189 49.6889 9.94434 46.1429 9.94434Z" fill="#FFB833"/>
<path d="M42.0943 22.088C42.0224 22.8643 42.1594 23.6457 42.4911 24.3512C43.2334 25.8871 44.7607 26.5377 45.8486 26.8128C45.9521 26.8385 46.0607 26.8342 46.1618 26.8003C46.2629 26.7664 46.3523 26.7045 46.4195 26.6217C46.4866 26.5388 46.5288 26.4386 46.541 26.3327C46.5532 26.2267 46.535 26.1195 46.4885 26.0236C45.8416 24.6775 45.6694 23.152 46 21.6956L42.0943 22.088Z" fill="#FFB833"/>
<path d="M76.1063 37.2585C84.4836 37.2585 91.2747 30.4674 91.2747 22.0902C91.2747 13.713 84.4836 6.92188 76.1063 6.92188C67.7291 6.92188 60.938 13.713 60.938 22.0902C60.938 30.4674 67.7291 37.2585 76.1063 37.2585Z" fill="#FFDB99"/>
<path d="M82.7997 35.0828C83.0344 37.9112 83.8513 41.6953 86.6969 44.4683C88.141 45.8698 89.2139 46.1407 90.2954 46.8744C95.3849 50.3322 94.4975 59.9353 94.3482 67.0726C94.216 73.3822 94.5615 82.0425 96.6562 92.7378C96.6562 92.7378 78.0984 100.078 59.2676 92.7378C59.2676 92.7378 60.2424 89.9456 61.1874 86.1253C62.4672 81.0059 62.7765 76.6949 62.9471 73.3417C63.8004 56.7613 60.2787 51.4926 64.0307 48.0775C66.9936 45.3813 70.8971 47.1112 72.9897 43.598C72.9897 43.598 73.4952 42.7448 74.5767 36.2368L82.7997 35.0828Z" fill="#FFDB99"/>
<path d="M82.4392 37.4441C71.6095 41.0448 66.889 39.413 64.5746 37.3353C58.1754 31.5888 60.9377 14.1637 60.9377 14.1616C60.9377 14.1616 73.0728 0.50984 84.9903 9.79514C85.8244 10.4351 89.2565 12.9948 90.6238 17.5318C92.614 24.1678 89.3632 32.1264 82.4392 37.4441Z" fill="#FFDB99"/>
<path d="M66.9721 21.4267C66.2195 20.9628 65.3418 20.743 64.4594 20.7975C63.86 20.8273 63.0494 20.8636 62.834 21.3499C62.7851 21.4556 62.7653 21.5723 62.7765 21.6882C62.7878 21.804 62.8297 21.9148 62.898 22.009C63.2051 22.3653 63.8834 21.9749 65.031 21.8832C66.5242 21.7637 67.5438 22.2607 67.627 22.0389C67.6782 21.8789 67.1705 21.5547 66.9721 21.4267Z" fill="#383333"/>
<path d="M70.7049 27.8449C70.7108 27.2724 69.9699 26.8005 69.0499 26.7909C68.1298 26.7812 67.3792 27.2375 67.3732 27.8101C67.3672 28.3826 68.1081 28.8545 69.0281 28.8641C69.9482 28.8738 70.6989 28.4175 70.7049 27.8449Z" fill="#FFC871"/>
<path d="M74.7451 22.649C74.9776 22.3347 75.2721 22.0715 75.6104 21.8756C75.9487 21.6796 76.3235 21.5552 76.7118 21.5099C77.1835 21.4548 77.6603 21.5544 78.0706 21.7936C79.4059 22.7023 79.4955 26.2155 77.6184 27.4143C76.5689 28.0819 75.2976 27.779 74.8646 27.6553C74.8248 25.9816 74.7849 24.3128 74.7451 22.649Z" fill="#FFDB99"/>
<path d="M76.6377 26.4757C76.6198 26.4763 76.6023 26.4702 76.5886 26.4586C76.5803 26.4524 76.5734 26.4445 76.5681 26.4355C76.5629 26.4265 76.5595 26.4166 76.5581 26.4063C76.5567 26.396 76.5574 26.3855 76.5601 26.3754C76.5627 26.3654 76.5674 26.356 76.5737 26.3477C76.9705 25.8251 77.1091 25.3324 76.9896 24.8823C76.7763 24.0995 75.8527 23.6942 75.8442 23.6899C75.8278 23.683 75.8141 23.671 75.8052 23.6555C75.7964 23.6401 75.7928 23.6222 75.7951 23.6046C75.7982 23.5869 75.807 23.5707 75.82 23.5584C75.8331 23.5461 75.8498 23.5384 75.8676 23.5363L77.8237 23.323C77.8341 23.3218 77.8446 23.3227 77.8546 23.3256C77.8646 23.3285 77.874 23.3334 77.8821 23.3399C77.8903 23.3465 77.897 23.3546 77.902 23.3638C77.907 23.3729 77.9101 23.383 77.9111 23.3934C77.9126 23.4038 77.912 23.4144 77.9092 23.4246C77.9064 23.4348 77.9015 23.4442 77.8949 23.4524C77.8883 23.4606 77.8801 23.4674 77.8708 23.4723C77.8615 23.4772 77.8512 23.4801 77.8407 23.4809L76.1471 23.6664C76.4606 23.8499 76.9854 24.236 77.1454 24.8375C77.2776 25.3388 77.1283 25.8784 76.7017 26.4416C76.6944 26.4518 76.6848 26.4603 76.6737 26.4662C76.6626 26.4721 76.6503 26.4754 76.6377 26.4757Z" fill="#383333"/>
<path fill-rule="evenodd" clip-rule="evenodd" d="M64.9503 26.094C64.7888 26.2827 64.575 26.4192 64.3358 26.4862C64.0967 26.5532 63.843 26.5477 63.607 26.4704C63.371 26.3931 63.1632 26.2474 63.0101 26.0519C62.8569 25.8564 62.7652 25.6198 62.7467 25.3722C62.7281 25.1245 62.7835 24.8769 62.9058 24.6608C63.0281 24.4446 63.2118 24.2696 63.4337 24.158C63.6555 24.0464 63.9055 24.0031 64.152 24.0337C64.3984 24.0643 64.6303 24.1674 64.8181 24.3299C65.0687 24.5468 65.2234 24.8541 65.2482 25.1847C65.2729 25.5152 65.1659 25.8421 64.9503 26.094Z" fill="#383333"/>
<path d="M74.0053 39.5345C73.977 39.5345 73.9499 39.5233 73.9299 39.5033C73.9099 39.4833 73.8987 39.4562 73.8987 39.4279C73.8987 39.3996 73.9099 39.3725 73.9299 39.3525C73.9499 39.3325 73.977 39.3212 74.0053 39.3212C76.4114 39.1847 80.7523 37.8686 80.7949 37.8537C80.8223 37.8463 80.8516 37.8496 80.8766 37.8631C80.9016 37.8766 80.9205 37.8992 80.9293 37.9262C80.9372 37.9534 80.934 37.9825 80.9204 38.0073C80.9068 38.0321 80.8839 38.0505 80.8568 38.0585C80.8141 38.0712 76.4498 39.3959 74.0181 39.5345H74.0053ZM64.2507 33.6771C64.148 33.6773 64.0453 33.6702 63.9436 33.6558C63.9332 33.6545 63.9231 33.6511 63.9141 33.6459C63.905 33.6406 63.897 33.6336 63.8907 33.6253C63.8843 33.617 63.8797 33.6074 63.877 33.5973C63.8744 33.5871 63.8738 33.5766 63.8753 33.5662C63.8763 33.5557 63.8795 33.5455 63.8847 33.5362C63.8898 33.527 63.8968 33.5189 63.9052 33.5125C63.9136 33.5061 63.9233 33.5015 63.9335 33.499C63.9438 33.4965 63.9545 33.4961 63.9649 33.4979C64.3034 33.5461 64.6485 33.5078 64.9682 33.3866C65.2878 33.2654 65.5716 33.0652 65.793 32.8047C65.8067 32.7884 65.8262 32.7782 65.8473 32.7762C65.8685 32.7742 65.8895 32.7806 65.906 32.794C65.9136 32.8014 65.9196 32.8102 65.9237 32.8199C65.9278 32.8296 65.9299 32.84 65.9299 32.8505C65.9299 32.8611 65.9278 32.8715 65.9237 32.8812C65.9196 32.8909 65.9136 32.8997 65.906 32.9071C65.7017 33.1491 65.4469 33.3435 65.1595 33.4765C64.872 33.6095 64.5589 33.678 64.2422 33.6771H64.2507Z" fill="#383333"/>
<path d="M60.3684 22.342C60.3684 22.342 60.5156 24.3897 59.1824 25.4264C57.8492 26.4631 59.1568 28.626 62.0236 27.8858C62.0236 27.8858 62.1708 22.1287 60.3684 22.342Z" fill="#FFDB99"/>
<path d="M62.9447 73.3396C62.7741 76.6928 62.4562 80.9974 61.1849 86.1232C60.2378 89.9435 59.2651 92.7357 59.2651 92.7357C78.1045 100.076 96.6538 92.7357 96.6538 92.7357C94.5676 82.0404 94.2135 73.3801 94.3458 67.0705C94.4951 59.9332 95.3825 50.3301 90.2929 46.8723C89.6338 46.4244 88.9768 46.1492 88.2388 45.6842C82.0528 47.8749 70.7752 45.5669 70.7752 45.5669C68.704 46.4756 66.1443 46.162 64.0326 48.0754C60.2805 51.4905 63.7979 56.7592 62.9447 73.3396Z" fill="#383333"/>
<path d="M12.1007 37.1624H10.181C10.091 37.1624 10.0047 37.1267 9.94113 37.0631C9.87753 36.9995 9.8418 36.9132 9.8418 36.8233C9.8418 36.7333 9.87753 36.6471 9.94113 36.5835C10.0047 36.5199 10.091 36.4841 10.181 36.4841H12.1007C12.1907 36.4841 12.2769 36.5199 12.3406 36.5835C12.4042 36.6471 12.4399 36.7333 12.4399 36.8233C12.4399 36.9132 12.4042 36.9995 12.3406 37.0631C12.2769 37.1267 12.1907 37.1624 12.1007 37.1624ZM14.0418 36.8233C14.0418 36.7333 14.0776 36.6471 14.1412 36.5835C14.2048 36.5199 14.291 36.4841 14.381 36.4841C14.4709 36.4841 14.5572 36.5199 14.6208 36.5835C14.6844 36.6471 14.7202 36.7333 14.7202 36.8233C14.7202 36.9132 14.6844 36.9995 14.6208 37.0631C14.5572 37.1267 14.4709 37.1624 14.381 37.1624C14.291 37.1624 14.2048 37.1267 14.1412 37.0631C14.0776 36.9995 14.0418 36.9132 14.0418 36.8233Z" fill="#FFB833"/>
<path d="M40.8359 37.1625C40.7688 37.1625 40.7032 37.1426 40.6474 37.1053C40.5917 37.068 40.5482 37.0151 40.5225 36.9531C40.4968 36.8911 40.4901 36.8229 40.5032 36.7571C40.5163 36.6913 40.5486 36.6309 40.596 36.5835C40.6435 36.536 40.7039 36.5037 40.7697 36.4907C40.8355 36.4776 40.9037 36.4843 40.9657 36.51C41.0276 36.5356 41.0806 36.5791 41.1179 36.6349C41.1551 36.6906 41.175 36.7562 41.175 36.8233C41.175 36.9132 41.1393 36.9995 41.0757 37.0631C41.0121 37.1267 40.9258 37.1625 40.8359 37.1625ZM38.5577 37.1625H34.6798C34.5948 37.163 34.5126 37.1318 34.4494 37.075C34.3881 37.1321 34.3071 37.1634 34.2233 37.1625C34.1334 37.1625 34.0471 37.1267 33.9835 37.0631C33.9199 36.9995 33.8841 36.9132 33.8841 36.8233C33.8841 36.7333 33.9199 36.6471 33.9835 36.5835C34.0471 36.5199 34.1334 36.4841 34.2233 36.4841C34.3074 36.484 34.3883 36.516 34.4494 36.5737C34.5124 36.5163 34.5945 36.4844 34.6798 36.4841H38.5577C38.6477 36.4841 38.7339 36.5199 38.7976 36.5835C38.8612 36.6471 38.8969 36.7333 38.8969 36.8233C38.8969 36.9132 38.8612 36.9995 38.7976 37.0631C38.7339 37.1267 38.6477 37.1625 38.5577 37.1625ZM31.9452 37.1625H28.0651C27.9807 37.1633 27.8991 37.132 27.8369 37.075C27.7749 37.1324 27.6931 37.1637 27.6086 37.1625C27.5534 37.1627 27.4989 37.1494 27.45 37.1238C27.401 37.0982 27.3591 37.061 27.3278 37.0155C27.2965 36.97 27.2768 36.9175 27.2703 36.8627C27.2639 36.8078 27.271 36.7522 27.291 36.7007C27.311 36.6492 27.3432 36.6033 27.3849 36.5671C27.4266 36.5309 27.4766 36.5055 27.5304 36.493C27.5842 36.4804 27.6402 36.4813 27.6936 36.4953C27.747 36.5094 27.7962 36.5363 27.8369 36.5737C27.8989 36.5161 27.9804 36.4841 28.0651 36.4841H31.943C32.033 36.4841 32.1193 36.5199 32.1829 36.5835C32.2465 36.6471 32.2822 36.7333 32.2822 36.8233C32.2822 36.9132 32.2465 36.9995 32.1829 37.0631C32.1193 37.1267 32.033 37.1625 31.943 37.1625H31.9452ZM25.3326 37.1625H21.4504C21.366 37.1631 21.2845 37.1319 21.2222 37.075C21.1602 37.1324 21.0784 37.1637 20.9939 37.1625C20.904 37.1625 20.8177 37.1267 20.7541 37.0631C20.6905 36.9995 20.6548 36.9132 20.6548 36.8233C20.6548 36.7333 20.6905 36.6471 20.7541 36.5835C20.8177 36.5199 20.904 36.4841 20.9939 36.4841C21.0787 36.4836 21.1604 36.5157 21.2222 36.5737C21.2843 36.5163 21.3658 36.4843 21.4504 36.4841H25.3284C25.4183 36.4841 25.5046 36.5199 25.5682 36.5835C25.6318 36.6471 25.6675 36.7333 25.6675 36.8233C25.6675 36.9132 25.6318 36.9995 25.5682 37.0631C25.5046 37.1267 25.4183 37.1625 25.3284 37.1625H25.3326ZM18.7201 37.1625H14.8357C14.7458 37.1625 14.6595 37.1267 14.5959 37.0631C14.5323 36.9995 14.4966 36.9132 14.4966 36.8233C14.4966 36.7333 14.5323 36.6471 14.5959 36.5835C14.6595 36.5199 14.7458 36.4841 14.8357 36.4841H18.7137C18.8036 36.4841 18.8899 36.5199 18.9535 36.5835C19.0171 36.6471 19.0528 36.7333 19.0528 36.8233C19.0528 36.9132 19.0171 36.9995 18.9535 37.0631C18.8899 37.1267 18.8036 37.1625 18.7137 37.1625H18.7201Z" fill="#FFB833"/>
<path d="M43.2163 37.1624H41.2965C41.2066 37.1624 41.1203 37.1267 41.0567 37.0631C40.9931 36.9995 40.9574 36.9132 40.9574 36.8233C40.9574 36.7333 40.9931 36.6471 41.0567 36.5835C41.1203 36.5199 41.2066 36.4841 41.2965 36.4841H43.2163C43.3062 36.4841 43.3925 36.5199 43.4561 36.5835C43.5197 36.6471 43.5554 36.7333 43.5554 36.8233C43.5554 36.9132 43.5197 36.9995 43.4561 37.0631C43.3925 37.1267 43.3062 37.1624 43.2163 37.1624ZM12.9308 40.7972H11.011C10.9211 40.7972 10.8348 40.7615 10.7712 40.6979C10.7076 40.6343 10.6719 40.548 10.6719 40.4581C10.6719 40.3681 10.7076 40.2818 10.7712 40.2182C10.8348 40.1546 10.9211 40.1189 11.011 40.1189H12.9308C13.0208 40.1189 13.107 40.1546 13.1706 40.2182C13.2342 40.2818 13.27 40.3681 13.27 40.4581C13.27 40.548 13.2342 40.6343 13.1706 40.6979C13.107 40.7615 13.0208 40.7972 12.9308 40.7972ZM15.0426 40.4581C15.0431 40.3679 15.0793 40.2817 15.1433 40.2181C15.2072 40.1546 15.2937 40.1189 15.3838 40.1189C15.4734 40.1195 15.5592 40.1554 15.6223 40.219C15.6854 40.2825 15.7209 40.3685 15.7209 40.4581C15.7209 40.5476 15.6854 40.6336 15.6223 40.6971C15.5592 40.7607 15.4734 40.7967 15.3838 40.7972C15.2937 40.7972 15.2072 40.7616 15.1433 40.698C15.0793 40.6345 15.0431 40.5482 15.0426 40.4581Z" fill="#FFB833"/>
<path d="M29.6073 40.7972C29.5402 40.7972 29.4746 40.7773 29.4188 40.7401C29.3631 40.7028 29.3196 40.6498 29.2939 40.5878C29.2683 40.5259 29.2615 40.4577 29.2746 40.3919C29.2877 40.3261 29.32 40.2657 29.3674 40.2182C29.4149 40.1708 29.4753 40.1385 29.5411 40.1254C29.6069 40.1123 29.6751 40.119 29.7371 40.1447C29.799 40.1704 29.852 40.2139 29.8893 40.2696C29.9265 40.3254 29.9464 40.391 29.9464 40.4581C29.9464 40.5026 29.9377 40.5467 29.9206 40.5878C29.9036 40.629 29.8786 40.6664 29.8471 40.6979C29.8156 40.7294 29.7782 40.7544 29.7371 40.7714C29.6959 40.7884 29.6518 40.7972 29.6073 40.7972ZM27.1542 40.7972H22.9862C22.9402 40.7973 22.8946 40.7878 22.8524 40.7694C22.8102 40.7511 22.7722 40.7242 22.7409 40.6906C22.7024 40.7315 22.6543 40.7622 22.601 40.7799C22.5477 40.7976 22.4908 40.8018 22.4354 40.7921C22.3801 40.7824 22.328 40.7591 22.2839 40.7243C22.2398 40.6896 22.205 40.6443 22.1827 40.5928C22.1604 40.5412 22.1512 40.4849 22.1561 40.4289C22.1609 40.373 22.1795 40.3191 22.2103 40.2721C22.2411 40.2251 22.2831 40.1865 22.3326 40.1598C22.382 40.133 22.4373 40.119 22.4934 40.1189C22.5395 40.1192 22.5851 40.1285 22.6276 40.1465C22.6701 40.1644 22.7086 40.1906 22.7409 40.2234C22.7727 40.1904 22.8108 40.1642 22.8529 40.1462C22.895 40.1283 22.9404 40.119 22.9862 40.1189H27.1542C27.2442 40.1189 27.3304 40.1546 27.394 40.2182C27.4577 40.2818 27.4934 40.3681 27.4934 40.4581C27.4934 40.548 27.4577 40.6343 27.394 40.6979C27.3304 40.7615 27.2442 40.7972 27.1542 40.7972ZM20.0404 40.7972H15.8724C15.7824 40.7972 15.6961 40.7615 15.6325 40.6979C15.5689 40.6343 15.5332 40.548 15.5332 40.4581C15.5332 40.3681 15.5689 40.2818 15.6325 40.2182C15.6961 40.1546 15.7824 40.1189 15.8724 40.1189H20.0404C20.1304 40.1189 20.2166 40.1546 20.2802 40.2182C20.3438 40.2818 20.3796 40.3681 20.3796 40.4581C20.3796 40.548 20.3438 40.6343 20.2802 40.6979C20.2166 40.7615 20.1304 40.7972 20.0404 40.7972Z" fill="#FFB833"/>
<path d="M32.0155 40.7972H30.0957C30.0058 40.7972 29.9195 40.7615 29.8559 40.6979C29.7923 40.6343 29.7565 40.548 29.7565 40.4581C29.7565 40.3681 29.7923 40.2818 29.8559 40.2182C29.9195 40.1546 30.0058 40.1189 30.0957 40.1189H32.0155C32.1054 40.1189 32.1917 40.1546 32.2553 40.2182C32.3189 40.2818 32.3546 40.3681 32.3546 40.4581C32.3546 40.548 32.3189 40.6343 32.2553 40.6979C32.1917 40.7615 32.1054 40.7972 32.0155 40.7972ZM12.9308 44.1547H11.011C10.9211 44.1547 10.8348 44.119 10.7712 44.0553C10.7076 43.9917 10.6719 43.9055 10.6719 43.8155C10.6719 43.7256 10.7076 43.6393 10.7712 43.5757C10.8348 43.5121 10.9211 43.4764 11.011 43.4764H12.9308C13.0208 43.4764 13.107 43.5121 13.1706 43.5757C13.2342 43.6393 13.27 43.7256 13.27 43.8155C13.27 43.9055 13.2342 43.9917 13.1706 44.0553C13.107 44.119 13.0208 44.1547 12.9308 44.1547ZM14.7973 43.8134C14.7973 43.7234 14.833 43.6372 14.8966 43.5736C14.9602 43.51 15.0465 43.4742 15.1364 43.4742C15.1811 43.4739 15.2255 43.4825 15.2669 43.4994C15.3083 43.5164 15.3459 43.5413 15.3776 43.5728C15.4093 43.6043 15.4345 43.6418 15.4517 43.6831C15.4689 43.7244 15.4777 43.7687 15.4777 43.8134C15.4777 43.9039 15.4417 43.9907 15.3777 44.0547C15.3137 44.1187 15.2269 44.1547 15.1364 44.1547C15.0463 44.1541 14.96 44.1179 14.8965 44.054C14.8329 43.99 14.7973 43.9035 14.7973 43.8134Z" fill="#FFB833"/>
<path d="M40.7462 44.1547C40.6786 44.1552 40.6124 44.1355 40.556 44.0983C40.4996 44.061 40.4555 44.0079 40.4293 43.9455C40.4032 43.8832 40.3961 43.8145 40.409 43.7482C40.422 43.6818 40.4543 43.6208 40.502 43.5729C40.5496 43.5249 40.6104 43.4922 40.6767 43.4789C40.7429 43.4655 40.8117 43.4722 40.8741 43.4979C40.9366 43.5237 40.9901 43.5675 41.0277 43.6236C41.0653 43.6798 41.0853 43.7459 41.0853 43.8135C41.0853 43.9036 41.0497 43.9901 40.9861 44.054C40.9226 44.118 40.8363 44.1542 40.7462 44.1547ZM38.5363 44.1547H34.7885C34.71 44.1521 34.6348 44.1227 34.5752 44.0716C34.5164 44.1241 34.4407 44.1537 34.3619 44.1547C34.2763 44.148 34.1964 44.1092 34.1381 44.0461C34.0799 43.9831 34.0475 43.9004 34.0475 43.8145C34.0475 43.7287 34.0799 43.646 34.1381 43.5829C34.1964 43.5199 34.2763 43.4811 34.3619 43.4743C34.4402 43.4757 34.5157 43.5044 34.5752 43.5554C34.6354 43.5055 34.7104 43.477 34.7885 43.4743H38.5406C38.5875 43.4706 38.6347 43.4766 38.6792 43.492C38.7237 43.5074 38.7645 43.5319 38.7991 43.5638C38.8337 43.5958 38.8613 43.6346 38.8802 43.6777C38.8991 43.7208 38.9088 43.7674 38.9088 43.8145C38.9088 43.8616 38.8991 43.9082 38.8802 43.9513C38.8613 43.9945 38.8337 44.0332 38.7991 44.0652C38.7645 44.0972 38.7237 44.1216 38.6792 44.137C38.6347 44.1524 38.5875 44.1585 38.5406 44.1547H38.5363ZM32.1371 44.1547H28.3892C28.3106 44.1529 28.235 44.1235 28.1759 44.0716C28.1341 44.1072 28.0843 44.1321 28.0307 44.1442C27.9772 44.1563 27.9215 44.1552 27.8684 44.1411C27.8154 44.1269 27.7666 44.1 27.7262 44.0628C27.6858 44.0256 27.655 43.9792 27.6366 43.9275C27.6181 43.8757 27.6125 43.8203 27.6201 43.766C27.6278 43.7116 27.6486 43.6599 27.6807 43.6153C27.7127 43.5707 27.7551 43.5346 27.8043 43.5101C27.8534 43.4855 27.9077 43.4732 27.9626 43.4743C28.0408 43.4767 28.1159 43.5053 28.1759 43.5554C28.2358 43.505 28.311 43.4764 28.3892 43.4743H32.1435C32.229 43.4811 32.3089 43.5199 32.3672 43.5829C32.4254 43.646 32.4578 43.7287 32.4578 43.8145C32.4578 43.9004 32.4254 43.9831 32.3672 44.0461C32.3089 44.1092 32.229 44.148 32.1435 44.1547H32.1371ZM25.7378 44.1547H21.99C21.9112 44.1537 21.8354 44.1241 21.7767 44.0716C21.7171 44.1227 21.6419 44.1521 21.5634 44.1547C21.4778 44.148 21.3979 44.1092 21.3397 44.0461C21.2814 43.9831 21.249 43.9004 21.249 43.8145C21.249 43.7287 21.2814 43.646 21.3397 43.5829C21.3979 43.5199 21.4778 43.4811 21.5634 43.4743C21.6415 43.477 21.7165 43.5055 21.7767 43.5554C21.8362 43.5044 21.9116 43.4757 21.99 43.4743H25.7442C25.8298 43.4811 25.9097 43.5199 25.9679 43.5829C26.0262 43.646 26.0585 43.7287 26.0585 43.8145C26.0585 43.9004 26.0262 43.9831 25.9679 44.0461C25.9097 44.1092 25.8298 44.148 25.7442 44.1547H25.7378ZM19.3386 44.1547H15.5844C15.4988 44.148 15.4189 44.1092 15.3606 44.0461C15.3024 43.9831 15.27 43.9004 15.27 43.8145C15.27 43.7287 15.3024 43.646 15.3606 43.5829C15.4189 43.5199 15.4988 43.4811 15.5844 43.4743H19.3386C19.4242 43.4811 19.504 43.5199 19.5623 43.5829C19.6206 43.646 19.6529 43.7287 19.6529 43.8145C19.6529 43.9004 19.6206 43.9831 19.5623 44.0461C19.504 44.1092 19.4242 44.148 19.3386 44.1547Z" fill="#FFB833"/>
<path d="M43.1074 44.1546H41.1876C41.0976 44.1546 41.0114 44.1189 40.9478 44.0553C40.8842 43.9917 40.8484 43.9054 40.8484 43.8155C40.8484 43.7255 40.8842 43.6393 40.9478 43.5757C41.0114 43.5121 41.0976 43.4763 41.1876 43.4763H43.1074C43.1973 43.4763 43.2836 43.5121 43.3472 43.5757C43.4108 43.6393 43.4465 43.7255 43.4465 43.8155C43.4465 43.9054 43.4108 43.9917 43.3472 44.0553C43.2836 44.1189 43.1973 44.1546 43.1074 44.1546ZM13.6154 47.5804H11.6956C11.6057 47.5804 11.5194 47.5446 11.4558 47.481C11.3922 47.4174 11.3564 47.3312 11.3564 47.2412C11.3564 47.1513 11.3922 47.065 11.4558 47.0014C11.5194 46.9378 11.6057 46.902 11.6956 46.902H13.6154C13.7053 46.902 13.7916 46.9378 13.8552 47.0014C13.9188 47.065 13.9545 47.1513 13.9545 47.2412C13.9545 47.3312 13.9188 47.4174 13.8552 47.481C13.7916 47.5446 13.7053 47.5804 13.6154 47.5804ZM15.1448 47.2433C15.1445 47.1986 15.1531 47.1543 15.17 47.1129C15.1869 47.0715 15.2119 47.0339 15.2434 47.0021C15.2749 46.9704 15.3124 46.9452 15.3537 46.9281C15.395 46.9109 15.4392 46.902 15.484 46.902C15.5735 46.9026 15.6593 46.9386 15.7224 47.0021C15.7855 47.0657 15.821 47.1516 15.821 47.2412C15.821 47.3308 15.7855 47.4167 15.7224 47.4803C15.6593 47.5438 15.5735 47.5798 15.484 47.5804C15.3944 47.5804 15.3084 47.5449 15.2449 47.4818C15.1813 47.4186 15.1454 47.3329 15.1448 47.2433Z" fill="#FFB833"/>
<path d="M26.3159 47.5825C26.2488 47.582 26.1834 47.5617 26.1278 47.5241C26.0723 47.4865 26.0292 47.4333 26.0039 47.3711C25.9786 47.309 25.9723 47.2408 25.9858 47.1751C25.9993 47.1093 26.032 47.0491 26.0797 47.002C26.1275 46.9549 26.1881 46.9229 26.254 46.9103C26.3198 46.8976 26.388 46.9047 26.4498 46.9308C26.5116 46.9568 26.5643 47.0007 26.6012 47.0567C26.6381 47.1127 26.6576 47.1784 26.6572 47.2454C26.6569 47.29 26.6479 47.334 26.6306 47.3751C26.6133 47.4161 26.588 47.4533 26.5563 47.4846C26.5247 47.5159 26.4871 47.5407 26.4459 47.5575C26.4046 47.5742 26.3604 47.5827 26.3159 47.5825ZM24.4473 47.5825H21.2733C21.2069 47.5831 21.1421 47.563 21.0877 47.5249C21.0323 47.5624 20.9669 47.5825 20.9 47.5825C20.8101 47.5825 20.7238 47.5467 20.6602 47.4831C20.5966 47.4195 20.5608 47.3333 20.5608 47.2433C20.5608 47.1534 20.5966 47.0671 20.6602 47.0035C20.7238 46.9399 20.8101 46.9041 20.9 46.9041C20.9666 46.9044 21.0317 46.9236 21.0877 46.9596C21.1427 46.9231 21.2073 46.9038 21.2733 46.9041H24.4473C24.494 46.9004 24.5409 46.9064 24.5851 46.9217C24.6294 46.937 24.6699 46.9613 24.7043 46.9931C24.7387 47.0249 24.7661 47.0634 24.7849 47.1063C24.8037 47.1491 24.8134 47.1954 24.8134 47.2422C24.8134 47.289 24.8037 47.3353 24.7849 47.3782C24.7661 47.4211 24.7387 47.4596 24.7043 47.4914C24.6699 47.5231 24.6294 47.5474 24.5851 47.5627C24.5409 47.5781 24.494 47.584 24.4473 47.5803V47.5825ZM19.0314 47.5825H15.8553C15.7653 47.5825 15.6791 47.5467 15.6155 47.4831C15.5518 47.4195 15.5161 47.3333 15.5161 47.2433C15.5161 47.1534 15.5518 47.0671 15.6155 47.0035C15.6791 46.9399 15.7653 46.9041 15.8553 46.9041H19.0293C19.1192 46.9041 19.2055 46.9399 19.2691 47.0035C19.3327 47.0671 19.3685 47.1534 19.3685 47.2433C19.3685 47.3333 19.3327 47.4195 19.2691 47.4831C19.2055 47.5467 19.1192 47.5825 19.0293 47.5825H19.0314Z" fill="#FFB833"/>
<path d="M28.613 47.5848H26.6932C26.6033 47.5848 26.517 47.5491 26.4534 47.4855C26.3898 47.4219 26.3541 47.3356 26.3541 47.2457C26.3541 47.1557 26.3898 47.0694 26.4534 47.0058C26.517 46.9422 26.6033 46.9065 26.6932 46.9065H28.613C28.6986 46.9133 28.7785 46.9521 28.8367 47.0151C28.895 47.0782 28.9273 47.1609 28.9273 47.2467C28.9273 47.3326 28.895 47.4153 28.8367 47.4783C28.7785 47.5414 28.6986 47.5802 28.613 47.5869V47.5848ZM14.3107 51.0447H12.3909C12.301 51.0447 12.2147 51.0089 12.1511 50.9453C12.0875 50.8817 12.0518 50.7955 12.0518 50.7055C12.0518 50.6156 12.0875 50.5293 12.1511 50.4657C12.2147 50.4021 12.301 50.3663 12.3909 50.3663H14.3107C14.4006 50.3663 14.4869 50.4021 14.5505 50.4657C14.6141 50.5293 14.6498 50.6156 14.6498 50.7055C14.6498 50.7955 14.6141 50.8817 14.5505 50.9453C14.4869 51.0089 14.4006 51.0447 14.3107 51.0447ZM16.1217 50.7055C16.1222 50.6159 16.1582 50.5302 16.2218 50.4671C16.2853 50.4039 16.3713 50.3685 16.4608 50.3685C16.5504 50.3685 16.6364 50.4039 16.6999 50.4671C16.7635 50.5302 16.7994 50.6159 16.8 50.7055C16.8 50.7955 16.7643 50.8817 16.7007 50.9453C16.6371 51.0089 16.5508 51.0447 16.4608 51.0447C16.3709 51.0447 16.2846 51.0089 16.221 50.9453C16.1574 50.8817 16.1217 50.7955 16.1217 50.7055Z" fill="#FFB833"/>
<path d="M35.2149 51.0511C35.1249 51.0511 35.0387 51.0153 34.9751 50.9517C34.9115 50.8881 34.8757 50.8018 34.8757 50.7119C34.8757 50.6219 34.9115 50.5357 34.9751 50.4721C35.0387 50.4085 35.1249 50.3727 35.2149 50.3727C35.2598 50.3722 35.3043 50.3808 35.3457 50.3981C35.3872 50.4153 35.4246 50.4408 35.4559 50.473C35.4878 50.504 35.5129 50.5412 35.5298 50.5823C35.5467 50.6234 35.5549 50.6675 35.554 50.7119C35.554 50.8018 35.5183 50.8881 35.4547 50.9517C35.3911 51.0153 35.3048 51.0511 35.2149 51.0511ZM33.0605 51.0511H29.3916C29.3139 51.0502 29.2387 51.0231 29.1783 50.9743C29.1122 51.0262 29.0295 51.0524 28.9456 51.0481C28.8617 51.0438 28.7822 51.0092 28.7218 50.9508C28.6904 50.9195 28.6656 50.8822 28.6488 50.8412C28.6319 50.8002 28.6234 50.7562 28.6237 50.7119C28.6236 50.6476 28.6418 50.5846 28.6762 50.5302C28.7105 50.4759 28.7596 50.4324 28.8178 50.4049C28.8759 50.3774 28.9407 50.367 29.0045 50.3749C29.0683 50.3828 29.1286 50.4087 29.1783 50.4495C29.2387 50.4007 29.3139 50.3736 29.3916 50.3727H33.0562C33.1007 50.3727 33.1447 50.3816 33.1857 50.3988C33.2268 50.416 33.2639 50.4413 33.2951 50.473C33.3271 50.5039 33.3525 50.5411 33.3698 50.5821C33.387 50.6232 33.3957 50.6674 33.3954 50.7119C33.3948 50.8015 33.3588 50.8872 33.2953 50.9503C33.2317 51.0135 33.1458 51.0489 33.0562 51.0489L33.0605 51.0511ZM26.8105 51.0511H23.1438C23.0661 51.0497 22.9912 51.0227 22.9305 50.9743C22.8808 51.015 22.8206 51.0407 22.7568 51.0485C22.6931 51.0564 22.6284 51.0459 22.5704 51.0184C22.5124 50.9909 22.4633 50.9475 22.429 50.8933C22.3946 50.839 22.3764 50.7761 22.3764 50.7119C22.3764 50.6477 22.3946 50.5848 22.429 50.5305C22.4633 50.4762 22.5124 50.4329 22.5704 50.4054C22.6284 50.3779 22.6931 50.3674 22.7568 50.3753C22.8206 50.3831 22.8808 50.4088 22.9305 50.4495C22.9909 50.4007 23.0661 50.3736 23.1438 50.3727H26.8084C26.8984 50.3727 26.9846 50.4085 27.0482 50.4721C27.1118 50.5357 27.1476 50.6219 27.1476 50.7119C27.1476 50.8018 27.1118 50.8881 27.0482 50.9517C26.9846 51.0153 26.8984 51.0511 26.8084 51.0511H26.8105ZM20.5606 51.0511H16.8938C16.8039 51.0511 16.7176 51.0153 16.654 50.9517C16.5904 50.8881 16.5547 50.8018 16.5547 50.7119C16.5553 50.6223 16.5912 50.5366 16.6548 50.4735C16.7183 50.4103 16.8043 50.3749 16.8938 50.3749H20.5563C20.6463 50.3749 20.7326 50.4106 20.7962 50.4742C20.8598 50.5378 20.8955 50.6241 20.8955 50.714C20.8955 50.804 20.8598 50.8902 20.7962 50.9539C20.7326 51.0175 20.6463 51.0532 20.5563 51.0532L20.5606 51.0511Z" fill="#FFB833"/>
<path d="M37.5617 51.0509H35.6419C35.552 51.0509 35.4657 51.0152 35.4021 50.9515C35.3385 50.8879 35.3028 50.8017 35.3028 50.7117C35.3028 50.6218 35.3385 50.5355 35.4021 50.4719C35.4657 50.4083 35.552 50.3726 35.6419 50.3726H37.5617C37.6516 50.3726 37.7379 50.4083 37.8015 50.4719C37.8651 50.5355 37.9008 50.6218 37.9008 50.7117C37.9008 50.8017 37.8651 50.8879 37.8015 50.9515C37.7379 51.0152 37.6516 51.0509 37.5617 51.0509ZM15.0065 54.5491H13.0867C12.9968 54.5491 12.9105 54.5134 12.8469 54.4498C12.7833 54.3862 12.7476 54.2999 12.7476 54.21C12.7476 54.12 12.7833 54.0338 12.8469 53.9702C12.9105 53.9065 12.9968 53.8708 13.0867 53.8708H15.0065C15.0921 53.8776 15.172 53.9164 15.2302 53.9794C15.2885 54.0425 15.3208 54.1252 15.3208 54.211C15.3208 54.2969 15.2885 54.3796 15.2302 54.4426C15.172 54.5057 15.0921 54.5445 15.0065 54.5513V54.5491ZM17.2036 54.2078C17.2041 54.1183 17.2401 54.0325 17.3037 53.9694C17.3672 53.9063 17.4531 53.8708 17.5427 53.8708C17.6327 53.8708 17.7189 53.9065 17.7825 53.9702C17.8462 54.0338 17.8819 54.12 17.8819 54.21C17.8819 54.2999 17.8462 54.3862 17.7825 54.4498C17.7189 54.5134 17.6327 54.5491 17.5427 54.5491C17.4526 54.5486 17.3663 54.5124 17.3028 54.4484C17.2392 54.3845 17.2036 54.298 17.2036 54.2078Z" fill="#FFB833"/>
<path d="M32.2564 54.5558C32.1665 54.5558 32.0802 54.52 32.0166 54.4564C31.953 54.3928 31.9173 54.3066 31.9173 54.2166C31.9173 54.1267 31.953 54.0404 32.0166 53.9768C32.0802 53.9132 32.1665 53.8775 32.2564 53.8775C32.3013 53.8771 32.3458 53.8857 32.3872 53.903C32.4286 53.9202 32.4661 53.9456 32.4975 53.9777C32.5287 54.0086 32.5533 54.0455 32.5698 54.0862C32.5863 54.1269 32.5943 54.1706 32.5934 54.2145C32.5937 54.259 32.5852 54.3032 32.5684 54.3444C32.5517 54.3857 32.5269 54.4232 32.4956 54.4549C32.4643 54.4866 32.4271 54.5118 32.386 54.5291C32.345 54.5465 32.301 54.5555 32.2564 54.5558ZM29.7202 54.5558H25.4071C25.3592 54.5561 25.3118 54.5461 25.268 54.5266C25.2242 54.5071 25.1851 54.4785 25.1533 54.4427C25.1075 54.4939 25.0472 54.53 24.9805 54.5462C24.9137 54.5624 24.8436 54.558 24.7794 54.5335C24.7153 54.5089 24.6601 54.4655 24.6211 54.409C24.5822 54.3524 24.5613 54.2853 24.5613 54.2166C24.5613 54.1479 24.5822 54.0809 24.6211 54.0243C24.6601 53.9677 24.7153 53.9243 24.7794 53.8998C24.8436 53.8753 24.9137 53.8708 24.9805 53.887C25.0472 53.9032 25.1075 53.9393 25.1533 53.9905C25.1852 53.9548 25.2243 53.9263 25.2681 53.9068C25.3118 53.8873 25.3592 53.8773 25.4071 53.8775H29.7202C29.7647 53.8775 29.8087 53.8863 29.8497 53.9035C29.8907 53.9208 29.9279 53.946 29.9591 53.9777C29.9906 54.0089 30.0156 54.0461 30.0324 54.0872C30.0493 54.1282 30.0577 54.1723 30.0572 54.2166C30.0572 54.3062 30.0218 54.3921 29.9586 54.4557C29.8955 54.5192 29.8098 54.5552 29.7202 54.5558ZM22.3632 54.5558H18.0501C17.9601 54.5558 17.8739 54.52 17.8103 54.4564C17.7467 54.3928 17.7109 54.3066 17.7109 54.2166C17.7109 54.1267 17.7467 54.0404 17.8103 53.9768C17.8739 53.9132 17.9601 53.8775 18.0501 53.8775H22.3632C22.4077 53.877 22.4519 53.8856 22.493 53.9029C22.5341 53.9201 22.5712 53.9456 22.6021 53.9777C22.6341 54.0087 22.6595 54.0458 22.6768 54.0869C22.694 54.1279 22.7027 54.1721 22.7023 54.2166C22.7007 54.3055 22.6642 54.3901 22.6008 54.4523C22.5374 54.5145 22.452 54.5494 22.3632 54.5494V54.5558Z" fill="#FFB833"/>
<path d="M34.6883 54.5577H32.7686C32.6786 54.5577 32.5923 54.522 32.5287 54.4584C32.4651 54.3948 32.4294 54.3085 32.4294 54.2186C32.4294 54.1286 32.4651 54.0423 32.5287 53.9787C32.5923 53.9151 32.6786 53.8794 32.7686 53.8794H34.6883C34.7783 53.8794 34.8645 53.9151 34.9281 53.9787C34.9918 54.0423 35.0275 54.1286 35.0275 54.2186C35.0275 54.3085 34.9918 54.3948 34.9281 54.4584C34.8645 54.522 34.7783 54.5577 34.6883 54.5577ZM15.7146 58.0901H13.7948C13.7092 58.0833 13.6293 58.0445 13.5711 57.9815C13.5128 57.9184 13.4805 57.8357 13.4805 57.7499C13.4805 57.664 13.5128 57.5813 13.5711 57.5183C13.6293 57.4552 13.7092 57.4164 13.7948 57.4096H15.7146C15.8045 57.4096 15.8908 57.4454 15.9544 57.509C16.018 57.5726 16.0537 57.6589 16.0537 57.7488C16.0537 57.8388 16.018 57.925 15.9544 57.9886C15.8908 58.0522 15.8045 58.088 15.7146 58.088V58.0901ZM17.6386 57.7531C17.6386 57.6631 17.6743 57.5769 17.7379 57.5132C17.8016 57.4496 17.8878 57.4139 17.9778 57.4139C18.0223 57.4139 18.0664 57.4227 18.1076 57.4397C18.1487 57.4568 18.1861 57.4818 18.2176 57.5132C18.2491 57.5447 18.2741 57.5821 18.2911 57.6233C18.3082 57.6644 18.3169 57.7085 18.3169 57.7531C18.3169 57.843 18.2812 57.9293 18.2176 57.9929C18.154 58.0565 18.0677 58.0922 17.9778 58.0922C17.888 58.0917 17.8021 58.0558 17.7386 57.9923C17.6751 57.9288 17.6392 57.8428 17.6386 57.7531Z" fill="#FFB833"/>
<path d="M44.2403 58.1008C44.1846 58.1007 44.1297 58.087 44.0806 58.0607C44.0315 58.0344 43.9896 57.9965 43.9587 57.9502C43.9277 57.9039 43.9086 57.8507 43.9031 57.7953C43.8975 57.7399 43.9057 57.684 43.9269 57.6325C43.9482 57.581 43.9817 57.5355 44.0247 57.5C44.0676 57.4646 44.1186 57.4403 44.1732 57.4292C44.2278 57.4181 44.2842 57.4207 44.3376 57.4366C44.391 57.4526 44.4396 57.4814 44.4792 57.5206C44.543 57.5846 44.579 57.6712 44.5794 57.7616C44.5794 57.8062 44.5706 57.8503 44.5536 57.8914C44.5366 57.9326 44.5116 57.9699 44.4801 58.0014C44.4486 58.0329 44.4112 58.0579 44.37 58.075C44.3289 58.092 44.2848 58.1008 44.2403 58.1008ZM41.9749 58.1008H38.1354C38.0521 58.1011 37.9716 58.0707 37.9093 58.0154C37.8433 58.071 37.7591 58.1002 37.6728 58.0974C37.5866 58.0947 37.5044 58.0602 37.4421 58.0005C37.4107 57.9692 37.3858 57.932 37.3689 57.891C37.3521 57.8499 37.3436 57.806 37.344 57.7616C37.3438 57.6961 37.3626 57.6318 37.3981 57.5767C37.4337 57.5216 37.4844 57.478 37.5442 57.4512C37.604 57.4243 37.6703 57.4154 37.7351 57.4254C37.7999 57.4355 37.8604 57.4641 37.9093 57.5078C37.9685 57.4557 38.0438 57.4256 38.1226 57.4225H41.9728C42.0627 57.4225 42.149 57.4582 42.2126 57.5218C42.2762 57.5854 42.312 57.6717 42.312 57.7616C42.312 57.8516 42.2762 57.9378 42.2126 58.0014C42.149 58.065 42.0627 58.1008 41.9728 58.1008H41.9749ZM35.4093 58.1008H31.5698C31.4864 58.1013 31.4059 58.0709 31.3437 58.0154C31.28 58.0698 31.1992 58.1 31.1154 58.1008C31.0255 58.1008 30.9392 58.065 30.8756 58.0014C30.812 57.9378 30.7763 57.8516 30.7763 57.7616C30.7763 57.6717 30.812 57.5854 30.8756 57.5218C30.9392 57.4582 31.0255 57.4225 31.1154 57.4225C31.2002 57.4207 31.2826 57.4512 31.3458 57.5078C31.407 57.4507 31.4882 57.42 31.5719 57.4225H35.4114C35.5014 57.4225 35.5877 57.4582 35.6513 57.5218C35.7149 57.5854 35.7506 57.6717 35.7506 57.7616C35.7506 57.8516 35.7149 57.9378 35.6513 58.0014C35.5877 58.065 35.5014 58.1008 35.4114 58.1008H35.4093ZM28.8437 58.1008H25.0041C24.9195 58.1008 24.8379 58.0688 24.7759 58.0112C24.7151 58.0678 24.635 58.0991 24.5519 58.0986C24.5053 58.1023 24.4583 58.0964 24.4141 58.0811C24.3699 58.0657 24.3293 58.0414 24.2949 58.0097C24.2605 57.9779 24.2331 57.9394 24.2143 57.8965C24.1956 57.8536 24.1859 57.8073 24.1859 57.7605C24.1859 57.7137 24.1956 57.6674 24.2143 57.6246C24.2331 57.5817 24.2605 57.5432 24.2949 57.5114C24.3293 57.4796 24.3699 57.4554 24.4141 57.44C24.4583 57.4247 24.5053 57.4187 24.5519 57.4225C24.6361 57.421 24.7176 57.4515 24.7802 57.5078C24.8416 57.4511 24.9227 57.4205 25.0063 57.4225H28.8458C28.8905 57.422 28.9348 57.4305 28.9762 57.4473C29.0176 57.4642 29.0552 57.4891 29.0869 57.5206C29.119 57.5518 29.1445 57.5893 29.1618 57.6308C29.179 57.6722 29.1876 57.7167 29.1871 57.7616C29.1854 57.8512 29.1484 57.9365 29.084 57.9988C29.0197 58.0612 28.9333 58.0955 28.8437 58.0944V58.1008ZM22.2802 58.1008H18.43C18.34 58.1008 18.2538 58.065 18.1902 58.0014C18.1266 57.9378 18.0908 57.8516 18.0908 57.7616C18.0908 57.6717 18.1266 57.5854 18.1902 57.5218C18.2538 57.4582 18.34 57.4225 18.43 57.4225H22.2695C22.3595 57.4225 22.4457 57.4582 22.5093 57.5218C22.573 57.5854 22.6087 57.6717 22.6087 57.7616C22.6087 57.8516 22.573 57.9378 22.5093 58.0014C22.4457 58.065 22.3595 58.1008 22.2695 58.1008H22.2802Z" fill="#FFB833"/>
<path d="M46.6161 58.1029H44.6963C44.6064 58.1029 44.5201 58.0672 44.4565 58.0035C44.3929 57.9399 44.3572 57.8537 44.3572 57.7637C44.3572 57.6738 44.3929 57.5875 44.4565 57.5239C44.5201 57.4603 44.6064 57.4246 44.6963 57.4246H46.6161C46.7017 57.4313 46.7816 57.4701 46.8398 57.5332C46.8981 57.5962 46.9304 57.6789 46.9304 57.7648C46.9304 57.8506 46.8981 57.9333 46.8398 57.9964C46.7816 58.0595 46.7017 58.0982 46.6161 58.105V58.1029ZM16.4309 61.6715H14.5111C14.4255 61.6647 14.3456 61.626 14.2874 61.5629C14.2291 61.4998 14.1968 61.4171 14.1968 61.3313C14.1968 61.2454 14.2291 61.1628 14.2874 61.0997C14.3456 61.0366 14.4255 60.9979 14.5111 60.9911H16.4309C16.5208 60.9911 16.6071 61.0268 16.6707 61.0904C16.7343 61.154 16.77 61.2403 16.77 61.3302C16.77 61.4202 16.7343 61.5065 16.6707 61.5701C16.6071 61.6337 16.5208 61.6694 16.4309 61.6694V61.6715ZM18.3741 61.3324C18.3744 61.2878 18.3834 61.2438 18.4008 61.2027C18.4181 61.1617 18.4433 61.1245 18.475 61.0932C18.5067 61.0619 18.5442 61.0371 18.5855 61.0203C18.6267 61.0036 18.6709 60.9951 18.7154 60.9953C18.805 60.9959 18.8907 61.0319 18.9539 61.0954C19.017 61.159 19.0524 61.2449 19.0524 61.3345C19.0524 61.4245 19.0167 61.5107 18.9531 61.5743C18.8895 61.6379 18.8032 61.6737 18.7133 61.6737C18.6231 61.6731 18.5369 61.6369 18.4733 61.5729C18.4098 61.509 18.3741 61.4225 18.3741 61.3324Z" fill="#FFB833"/>
<path d="M38.5789 61.6865C38.5225 61.6869 38.4669 61.6734 38.417 61.6471C38.3671 61.6208 38.3246 61.5825 38.2931 61.5358C38.2616 61.489 38.2422 61.4352 38.2366 61.379C38.231 61.3229 38.2394 61.2663 38.261 61.2143C38.2827 61.1622 38.3168 61.1163 38.3605 61.0807C38.4043 61.045 38.4561 61.0208 38.5115 61.0101C38.5668 60.9994 38.624 61.0026 38.6778 61.0194C38.7316 61.0362 38.7804 61.066 38.8199 61.1063C38.8518 61.1374 38.877 61.1745 38.8943 61.2156C38.9115 61.2566 38.9203 61.3007 38.9202 61.3452C38.9202 61.4357 38.8842 61.5225 38.8202 61.5865C38.7562 61.6505 38.6694 61.6865 38.5789 61.6865ZM36.2965 61.6865H32.4143C32.3297 61.6884 32.2477 61.657 32.186 61.599C32.1204 61.6557 32.0361 61.6861 31.9493 61.6841C31.8626 61.6821 31.7797 61.648 31.7168 61.5884C31.6699 61.5405 31.6381 61.4799 31.6254 61.4142C31.6127 61.3484 31.6196 61.2804 31.6453 61.2185C31.671 61.1567 31.7143 61.1037 31.7699 61.0663C31.8255 61.0289 31.8908 61.0087 31.9578 61.0082C32.0421 61.0081 32.1234 61.0393 32.186 61.0956C32.2487 61.0393 32.33 61.0081 32.4143 61.0082H36.2965C36.3864 61.0082 36.4727 61.0439 36.5363 61.1075C36.5999 61.1711 36.6356 61.2574 36.6356 61.3473C36.6356 61.4373 36.5999 61.5235 36.5363 61.5871C36.4727 61.6507 36.3864 61.6865 36.2965 61.6865ZM29.6839 61.6865H25.7996C25.7153 61.6867 25.6339 61.6555 25.5714 61.599C25.5063 61.656 25.4222 61.6866 25.3357 61.6846C25.2492 61.6826 25.1666 61.6483 25.1042 61.5884C25.0571 61.5409 25.0251 61.4807 25.0122 61.4151C24.9993 61.3496 25.006 61.2817 25.0315 61.2199C25.057 61.1582 25.1002 61.1053 25.1556 61.068C25.2111 61.0307 25.2763 61.0107 25.3431 61.0103C25.4275 61.0094 25.5091 61.0407 25.5714 61.0977C25.6346 61.0409 25.7167 61.0097 25.8017 61.0103H29.669C29.759 61.0103 29.8452 61.046 29.9088 61.1096C29.9724 61.1732 30.0082 61.2595 30.0082 61.3495C30.0082 61.4394 29.9724 61.5257 29.9088 61.5893C29.8452 61.6529 29.759 61.6886 29.669 61.6886L29.6839 61.6865ZM23.0714 61.6865H19.17C19.1255 61.6865 19.0815 61.6776 19.0404 61.6604C18.9994 61.6432 18.9622 61.618 18.9311 61.5862C18.883 61.5392 18.85 61.4789 18.8365 61.413C18.8229 61.3471 18.8294 61.2786 18.8551 61.2164C18.8808 61.1543 18.9246 61.1012 18.9807 61.0641C19.0368 61.027 19.1027 61.0075 19.17 61.0082H23.0565C23.1464 61.0082 23.2327 61.0439 23.2963 61.1075C23.3599 61.1711 23.3956 61.2574 23.3956 61.3473C23.3956 61.4373 23.3599 61.5235 23.2963 61.5871C23.2327 61.6507 23.1464 61.6865 23.0565 61.6865H23.0714Z" fill="#FFB833"/>
<path d="M40.9616 61.6866H39.0418C38.9518 61.6866 38.8656 61.6509 38.802 61.5873C38.7384 61.5237 38.7026 61.4374 38.7026 61.3475C38.7026 61.2575 38.7384 61.1712 38.802 61.1076C38.8656 61.044 38.9518 61.0083 39.0418 61.0083H40.9616C41.0515 61.0083 41.1378 61.044 41.2014 61.1076C41.265 61.1712 41.3007 61.2575 41.3007 61.3475C41.3007 61.4374 41.265 61.5237 41.2014 61.5873C41.1378 61.6509 41.0515 61.6866 40.9616 61.6866Z" fill="#FFB833"/>
<path d="M33.4167 20.5948C33.3092 20.595 33.2056 20.5547 33.1266 20.4818L29.5259 17.1435C29.4839 17.1043 29.45 17.0571 29.4262 17.0048C29.4024 16.9525 29.3892 16.8959 29.3873 16.8385C29.3864 16.7811 29.397 16.7242 29.4187 16.671C29.4403 16.6179 29.4724 16.5696 29.5131 16.5292L33.1159 12.9264C33.1959 12.8461 33.3046 12.8008 33.418 12.8006C33.5314 12.8004 33.6403 12.8453 33.7206 12.9253C33.8009 13.0054 33.8462 13.1141 33.8464 13.2275C33.8466 13.3409 33.8017 13.4497 33.7217 13.5301L30.4303 16.8257L33.7067 19.8611C33.7699 19.9193 33.814 19.9953 33.8332 20.079C33.8525 20.1627 33.846 20.2503 33.8147 20.3303C33.7833 20.4103 33.7286 20.4789 33.6575 20.5273C33.5865 20.5756 33.5026 20.6014 33.4167 20.6012V20.5948ZM42.254 20.5948C42.1955 20.5947 42.1377 20.5824 42.0841 20.5589C42.0305 20.5355 41.9823 20.5012 41.9426 20.4583C41.9044 20.4172 41.8747 20.3689 41.8553 20.3163C41.8358 20.2637 41.8269 20.2077 41.829 20.1516C41.8312 20.0955 41.8445 20.0405 41.868 19.9895C41.8915 19.9385 41.9248 19.8927 41.966 19.8547L45.2403 16.8257L41.9532 13.5301C41.8732 13.45 41.8282 13.3415 41.8282 13.2282C41.8282 13.115 41.8732 13.0065 41.9532 12.9264C42.0333 12.8464 42.1419 12.8014 42.2551 12.8014C42.3683 12.8014 42.4768 12.8464 42.5569 12.9264L46.1597 16.5292C46.2001 16.5698 46.232 16.6182 46.2533 16.6715C46.2747 16.7247 46.2851 16.7817 46.2839 16.8391C46.2827 16.8964 46.2699 16.9529 46.2464 17.0053C46.2228 17.0576 46.189 17.1046 46.1469 17.1435L42.5441 20.4818C42.4651 20.5547 42.3615 20.595 42.254 20.5948ZM35.7566 21.9003C35.711 21.9007 35.6656 21.8935 35.6223 21.879C35.569 21.8613 35.5197 21.8334 35.4773 21.7968C35.4349 21.7601 35.4001 21.7154 35.3749 21.6653C35.3497 21.6152 35.3347 21.5606 35.3307 21.5046C35.3266 21.4487 35.3337 21.3925 35.3514 21.3393L38.5147 11.8108C38.53 11.7549 38.5565 11.7026 38.5926 11.6572C38.6287 11.6118 38.6737 11.5743 38.7248 11.5469C38.7759 11.5195 38.8321 11.5028 38.8899 11.4979C38.9477 11.4929 39.0059 11.4998 39.0609 11.5181C39.116 11.5364 39.1667 11.5657 39.21 11.6043C39.2533 11.6429 39.2883 11.6899 39.3129 11.7424C39.3374 11.795 39.351 11.852 39.3527 11.9099C39.3545 11.9679 39.3444 12.0256 39.3231 12.0796L36.1598 21.6081C36.1316 21.6928 36.0776 21.7667 36.0053 21.8191C35.9329 21.8715 35.846 21.8999 35.7566 21.9003Z" fill="#FFF3E3"/>
<path d="M37.5614 70.4451C37.5614 70.4451 29.669 70.5581 28.1759 70.8589C26.6827 71.1597 20.2835 74.2164 20.7847 75.1976C21.286 76.1788 22.2352 75.9996 23.3956 75.4471C24.556 74.8947 26.8576 74.9203 28.8563 75.4749C30.855 76.0295 34.9164 77.384 36.6378 77.0832C38.3592 76.7824 37.5614 70.4451 37.5614 70.4451Z" fill="#FFDB99"/>
<path d="M67.6227 46.3987C66.4538 46.467 64.6706 46.7443 63.026 47.8919C60.6284 49.5621 60.0397 52.0151 58.1604 57.623C57.4906 59.611 56.4326 62.6656 54.9906 66.4497L36.3219 70.1826C35.541 71.1752 35.0184 72.3459 34.801 73.59C34.5836 74.8341 34.6782 76.1127 35.0762 77.3113C44.7156 78.8472 51.8038 78.572 56.2364 78.1027C57.8788 77.9299 59.3955 77.706 61.1019 76.8591C67.3689 73.7491 69.0882 65.7927 69.5873 62.7616C69.5873 62.7595 70.7498 49.208 67.6227 46.3987ZM59.3485 6.56345C59.3485 6.56345 55.8183 10.5502 58.6574 14.0527C61.4965 17.5552 66.9764 15.1192 71.3407 15.356C75.705 15.5928 68.8983 24.332 74.7536 26.3926C74.7536 26.3926 73.8876 22.6383 75.5045 21.9387C77.1214 21.239 78.542 21.5441 78.8918 23.0607C79.2416 24.5773 78.8172 27.7257 76.3854 27.8623C73.9537 27.9988 78.3052 39.9014 83.8512 37.2478C89.0943 34.7457 97.0763 19.5433 90.515 10.9917C87.4967 7.06046 81.1614 4.4965 75.7797 5.37106C70.9632 6.1603 67.5929 9.57323 62.61 8.17393C61.4349 7.83745 60.3301 7.2919 59.3485 6.56345Z" fill="#383333"/>
<path d="M62.798 76.0592C62.7813 76.0591 62.7647 76.055 62.7499 76.0472C62.735 76.0394 62.7223 76.0282 62.7127 76.0144C62.6965 75.9913 62.6899 75.9629 62.6943 75.935C62.6987 75.9072 62.7137 75.8821 62.7362 75.8651C69.0672 71.2001 69.0074 59.2143 69.0053 59.0927C69.0053 59.0648 69.0162 59.038 69.0358 59.018C69.0553 58.9981 69.0819 58.9866 69.1098 58.986C69.1377 58.986 69.1645 58.997 69.1845 59.0165C69.2044 59.0361 69.2159 59.0626 69.2165 59.0906C69.2165 59.2122 69.2805 71.3067 62.8599 76.0379C62.8418 76.0508 62.8203 76.0582 62.798 76.0592ZM65.795 14.202C64.0224 14.202 62.6935 13.7306 61.836 12.7984C60.4964 11.3394 60.8185 9.29806 60.8335 9.21273C60.838 9.18445 60.8536 9.15912 60.8768 9.14232C60.9 9.12552 60.9289 9.11862 60.9572 9.12315C60.9855 9.12767 61.0108 9.14325 61.0276 9.16645C61.0444 9.18965 61.0513 9.21858 61.0468 9.24686C61.0468 9.2682 60.7289 11.2733 62.0003 12.6598C62.9473 13.6922 64.5237 14.1274 66.6802 13.9567C66.7065 13.9566 66.7319 13.9665 66.7513 13.9842C66.7707 14.002 66.7826 14.0265 66.7848 14.0527C66.7859 14.0667 66.7843 14.0808 66.78 14.0942C66.7757 14.1076 66.7688 14.12 66.7597 14.1307C66.7505 14.1414 66.7394 14.1502 66.7269 14.1566C66.7143 14.163 66.7007 14.1668 66.6866 14.1679C66.3816 14.1892 66.083 14.202 65.795 14.202ZM75.7736 20.2749H75.7608C75.4925 20.2544 75.2332 20.1692 75.0051 20.0266C74.777 19.8839 74.5869 19.688 74.451 19.4558C73.4805 17.8048 74.7667 14.2276 75.091 13.368C67.0343 14.8611 65.2255 11.6828 65.1508 11.5442C65.1441 11.532 65.1399 11.5187 65.1384 11.5049C65.1369 11.4911 65.1382 11.4771 65.1422 11.4638C65.1461 11.4505 65.1527 11.4381 65.1615 11.4274C65.1703 11.4166 65.1812 11.4078 65.1935 11.4013C65.2058 11.3945 65.2193 11.3903 65.2333 11.3887C65.2473 11.3872 65.2614 11.3885 65.2749 11.3925C65.2884 11.3964 65.3009 11.403 65.3118 11.4118C65.3228 11.4207 65.3318 11.4316 65.3385 11.4439C65.3556 11.4759 67.1943 14.6713 75.2403 13.1227C75.2593 13.1194 75.2788 13.1213 75.2969 13.1281C75.3149 13.1349 75.3309 13.1464 75.343 13.1614C75.3552 13.1763 75.3631 13.1943 75.3661 13.2133C75.369 13.2324 75.3668 13.2519 75.3597 13.2699C75.3427 13.3125 73.5978 17.5957 74.6281 19.3491C74.746 19.5532 74.9124 19.725 75.1126 19.8493C75.3128 19.9735 75.5405 20.0465 75.7757 20.0616C75.7897 20.0632 75.8033 20.0675 75.8157 20.0744C75.828 20.0813 75.8389 20.0906 75.8476 20.1017C75.8563 20.1128 75.8628 20.1255 75.8665 20.1392C75.8703 20.1528 75.8713 20.167 75.8695 20.181C75.8667 20.2053 75.8556 20.2279 75.8382 20.245C75.8207 20.262 75.7979 20.2726 75.7736 20.2749ZM86.1467 33.0222C86.1261 33.0229 86.1058 33.0176 86.0882 33.0068C86.0707 32.9961 86.0567 32.9804 86.048 32.9617C86.0394 32.943 86.0364 32.9222 86.0396 32.9018C86.0427 32.8815 86.0518 32.8625 86.0657 32.8473C91.1851 26.913 91.0976 15.9426 91.0955 15.8317C91.0955 15.8038 91.1064 15.777 91.126 15.757C91.1455 15.7371 91.1721 15.7256 91.2 15.725C91.2139 15.7247 91.2277 15.7272 91.2406 15.7324C91.2536 15.7375 91.2654 15.7451 91.2753 15.7549C91.2852 15.7646 91.2931 15.7762 91.2985 15.7891C91.3039 15.8019 91.3067 15.8156 91.3067 15.8296C91.3067 15.9405 91.3962 26.9898 86.2235 32.9859C86.2143 32.9973 86.2025 33.0065 86.1892 33.0128C86.176 33.0191 86.1614 33.0223 86.1467 33.0222ZM80.8204 32.6468C80.7921 32.649 80.7641 32.64 80.7425 32.6216C80.7209 32.6032 80.7075 32.5769 80.7052 32.5486C80.703 32.5204 80.712 32.4923 80.7304 32.4707C80.7488 32.4491 80.7751 32.4357 80.8034 32.4335C86.3494 31.5504 87.9876 23.626 88.0025 23.5449C88.005 23.531 88.0103 23.5178 88.0181 23.5061C88.0259 23.4943 88.0359 23.4842 88.0477 23.4765C88.0595 23.4687 88.0727 23.4634 88.0865 23.4609C88.1004 23.4583 88.1146 23.4586 88.1284 23.4617C88.1558 23.4679 88.1798 23.4844 88.1953 23.5079C88.2108 23.5313 88.2166 23.5599 88.2116 23.5876C88.1966 23.6686 86.5328 31.7381 80.8375 32.6446L80.8204 32.6468ZM80.3384 27.5722C80.3186 27.5724 80.2991 27.5671 80.2822 27.557C80.2652 27.5468 80.2515 27.5321 80.2424 27.5146C80.2358 27.5022 80.2318 27.4885 80.2306 27.4746C80.2295 27.4606 80.2311 27.4465 80.2355 27.4331C80.2399 27.4198 80.2469 27.4075 80.2561 27.3969C80.2654 27.3864 80.2767 27.3778 80.2893 27.3717C82.2987 26.3435 83.2585 24.1912 83.5081 23.5534C82.544 23.7667 81.759 23.6025 81.1617 23.0842C79.5342 21.6529 79.9779 17.9904 79.9971 17.8346C80.0007 17.8064 80.0155 17.7807 80.0381 17.7633C80.0607 17.7459 80.0893 17.7382 80.1176 17.7419C80.1459 17.7455 80.1715 17.7603 80.1889 17.7829C80.2063 17.8055 80.214 17.8341 80.2104 17.8624C80.2104 17.8986 79.7624 21.5675 81.3068 22.9242C81.8763 23.4276 82.6634 23.5641 83.6425 23.3017C83.661 23.2969 83.6805 23.2971 83.6988 23.3023C83.7172 23.3076 83.7339 23.3177 83.747 23.3316C83.76 23.3453 83.769 23.3622 83.7732 23.3806C83.7773 23.399 83.7764 23.4182 83.7705 23.4361C83.7705 23.466 82.8234 26.3115 80.3789 27.5615C80.3664 27.5681 80.3525 27.5717 80.3384 27.5722ZM74.7454 8.05447C74.7245 8.05483 74.704 8.04892 74.6865 8.03751C74.6691 8.02611 74.6554 8.00973 74.6473 7.99048C74.6416 7.9776 74.6386 7.96373 74.6383 7.94967C74.6381 7.93561 74.6406 7.92163 74.6457 7.90855C74.6509 7.89546 74.6586 7.88353 74.6684 7.87343C74.6782 7.86333 74.6898 7.85526 74.7028 7.8497C74.7475 7.8305 79.1438 6.00245 82.1024 7.8497C82.1261 7.86503 82.1428 7.88894 82.1492 7.9164C82.1556 7.94385 82.151 7.9727 82.1365 7.99688C82.1212 8.02061 82.0972 8.0373 82.0696 8.0433C82.042 8.0493 82.0131 8.04411 81.9894 8.02888C79.1246 6.23282 74.8286 8.02888 74.7859 8.02888C74.7749 8.04085 74.761 8.04968 74.7454 8.05447Z" fill="white"/>
<path d="M63.6553 32.713C63.4243 32.7168 63.1938 32.6932 62.9684 32.6426C62.9412 32.6347 62.9181 32.6164 62.9042 32.5917C62.8902 32.567 62.8865 32.5378 62.8938 32.5104C62.9022 32.4835 62.9205 32.4608 62.9451 32.4469C62.9697 32.433 62.9986 32.429 63.026 32.4357C63.0452 32.4357 64.9906 32.9477 66.5925 31.0471C66.6014 31.0363 66.6123 31.0274 66.6247 31.0209C66.637 31.0143 66.6505 31.0104 66.6645 31.0092C66.6784 31.008 66.6924 31.0096 66.7057 31.0139C66.719 31.0182 66.7313 31.0252 66.7418 31.0343C66.7526 31.0432 66.7616 31.0541 66.7681 31.0664C66.7746 31.0788 66.7786 31.0923 66.7798 31.1063C66.781 31.1202 66.7794 31.1342 66.775 31.1475C66.7707 31.1608 66.7638 31.1731 66.7546 31.1836C65.6625 32.4827 64.4104 32.713 63.6553 32.713Z" fill="#383333"/>
</svg>
